<mxfile host="Electron" modified="2024-05-19T06:55:49.249Z" agent="Mozilla/5.0 (Windows NT 10.0; Win64; x64) AppleWebKit/537.36 (KHTML, like Gecko) draw.io/24.4.0 Chrome/120.0.6099.109 Electron/28.1.0 Safari/537.36" etag="Mqvn74-DSyuAc6WooR_z" version="24.4.0" type="device">
  <diagram name="第 1 页" id="nyOOdJ9Q4LCQ82wNipRQ">
    <mxGraphModel dx="989" dy="582" grid="0" gridSize="10" guides="1" tooltips="1" connect="1" arrows="1" fold="1" page="1" pageScale="1" pageWidth="827" pageHeight="1169" math="0" shadow="0">
      <root>
        <mxCell id="0" />
        <mxCell id="1" parent="0" />
        <mxCell id="9oymTsqKh7B6sWfHl0c2-1" value="題目: 圍棋，把被包住的o給反轉成x。" style="rounded=1;whiteSpace=wrap;html=1;" vertex="1" parent="1">
          <mxGeometry x="94" y="45" width="684" height="60" as="geometry" />
        </mxCell>
        <mxCell id="9oymTsqKh7B6sWfHl0c2-2" value="&lt;ul&gt;&lt;li&gt;用NumbersofIsLand的寫法DFS&lt;/li&gt;&lt;li&gt;DFS需要mark的方式走matrix&lt;/li&gt;&lt;/ul&gt;" style="rounded=1;whiteSpace=wrap;html=1;align=left;" vertex="1" parent="1">
          <mxGeometry x="538" y="139" width="232" height="60" as="geometry" />
        </mxCell>
        <mxCell id="9oymTsqKh7B6sWfHl0c2-4" value="觀察: 只要在邊界有O，跟他相連的，就一定是O，其他在邊界外的O或更邊界部相鄰的就一定是X。" style="rounded=1;whiteSpace=wrap;html=1;" vertex="1" parent="1">
          <mxGeometry x="126" y="139" width="310" height="60" as="geometry" />
        </mxCell>
        <mxCell id="9oymTsqKh7B6sWfHl0c2-5" value="" style="shape=image;verticalLabelPosition=bottom;labelBackgroundColor=default;verticalAlign=top;aspect=fixed;imageAspect=0;image=data:image/png,iVBORw0KGgoAAAANSUhEUgAAAVQAAAEiCAYAAACm6SppAAAAAXNSR0IArs4c6QAAAARnQU1BAACxjwv8YQUAAAAJcEhZcwAADsMAAA7DAcdvqGQAADpGSURBVHhe7Z0LdBXVvf+/CAIqRBGDgKFEYoIERAIoBKzEWgNdGssttQ8a0BatFyhdBewVaUvA3lLsrdAlF/z74LbFFG2RFkttIb5ILQQfgPIIEgyiRKJGjLwEVOh/vvvMTuYM5yTnJHPCI9/PWpPMY++ZPa/vfPdv7zPT4tChQ/+GEEKIRnOW+18IIUQjkaAKIURASFCFECIgJKhCCBEQElQhhAgICaoQQgSEBFUIIQJCgiqEEAEhQRVCiICQoAohREBIUIUQIiAkqEIIERASVCGECAgJqhBCBESTvb6voqICf/7zn83A8ZSUFDN/0KBB+NrXvmb+CyHE6UzCBZXiOW3aNKxbt85MWyHlfzuPcLqwsLBmuRBCnG4ktMr/0ksvIScnxwjn4MGD8Yc//AGrV682A8XzzTffNONcRuHNz883ec48ylF45xAMuHkWVu93ZwkhzjgSJqgUyO985ztm/Ic//KERUFutX7ZsGR544AEzbp0p0zDP3Xffbf7XTxFmpacj3TcMuO4bmHj/CpQfdZMJIUQTkbAqP90mnSldqT8+StdK6E69UGgpqHSsFNm6oaBORGG/XOT37eTOO4oPNq5G0eYqJPWagP/9y2Rkt3QXNQH71yzCzN8uxfnfWImCXHemEKLZkBCHymq7rebH09g0atQok4d5Y676Z34VBT8rcIfZWPDnF/DU1Gxg20L83x9icbrBUbWtGCuKy90pIURzIyGCypZ8MmfOHPM/Hmweu474aYPMO/Ix3BlbXV4amiWEEE1AwhwqaUiLvc3TqMYpp5rfxh2txY25FhS5014iLSvHojHOvDGLUH6sAkX3T8RXh4TitEOG34FZ//C437JFGOvMH3FfiZksnBhKl54+y1kzcddVM0086z9aiqU/HYvrrmaaIfjqjwtRamLA+7Fx8XSMvW6AWd+A68aGb9dLVQkKf3oHRrhlZCx5yqMlqDrmLhdCJJyECCoblVh1r49ojU+x5K2Tig/ANaec1z403Sj2Y/W9E7GgrBNunjoXs+++BZcdWI3CH96OOWvcJJ1z8L15c1HwzUwzmfOfczHXmZ4772aE5tRFBQrvnIgVGIYJMwow4UvJqFg+C2N+uhQlj/4At/+hCll3zMTcWRPQv7Ujmt7tWqqdB0L+WMxbcxT9vzfb2W4Bxg1si3X3jcWYe4ucPRBCNAUJa+WvC3bkp5iy4cq29nvhstha+iNwrApFjxRidYds5I/Mdmc2gnULsRQT8dhDjkiNysMtt8/G4oUTkOU4zKXLV4TEKikNOTflITv1fJMl5Yo85DnTeTdloV6Pvq4Q5YMXYPF/j8MtN+Vj8kOPYebIJOxf7jjThy/CzCceweTRzrpGT8Yj97nbLfI6aUeQf3oPCjtNxmMrF2P27bc4283HhP9ZjEenZqN8yS+x0C/AQoiEkBBBpcOsSxDZReq+++4z4xRUtux7Yd6YwwWlT2HWz2e5wxSM/fIITHymkyMo/4txGW6aRpGHiVNzkeROGfrlILuX410rdhsn3DgckR7t9bFJGDZ0mBnLHD0GeR3MaAi73Z27HVl12fxX/NXR1/wxE5Dpi3NkjsxFrlPCDZsVSxaiKUiIoF5yySVGFOuKg7JF3/Y/ZXcpK8A2T8y9A14rQuHiQndYgd3dx2Hxs4sxeViYBDacgZch7YRVJSGJZvTVqsYLaoT1J50bcrq9e2aZ/7W42/VQtXkrNjo+uTZu6xm+GIrZbqxsvOwLIeonIYLKKj2ZP3+++R8NulAKKn8xZR2pzWPXUS+jF2DHjh3Y8cYWrJxzC5JK5+EHExahNKjGmFZtIjRwBUgd628TQx/a/Z8ccP5m4paf2bhthCGv/kiuEKLxJERQ6S5tf1K6z1hh2ob0XzW0bIO0UbMxd3w2sGYh5vy2eVRzQ6JbgTYpNm4bYRgYf28LIUT8JKxRiv1J6TrpOCM1PPmxv5IikyZNMv8bQtp3CzBhKFDy8Bws2ubONLRHm+7Ov7cjxD3LPDHJRhCLowyalIxMpDhV/g2bNrpzhBAni4QJKsXU/nyUgsqfm0aKqTJ2ytZ+iinzRPqpanykYdzd45BdXYKF9y3yCGVv9GZIck0x/homtPtRtLgQoR6kjSPlkjTzf98nTdhRafAwDO8BlC6Z53uAOLDHw2+XBtBwJoSIhYQJKrGialv9+bIUCisHiuhll11W8zYqm7ZxYurSawImT8zCfqfqP+u3VlKTMOwr+Y7clmDeuLGY/uhSrFi2CNPHjMDcljkI5Kf3mWnIcf6tePAeLFy2AoU/X4jwtxUkgJbZmDA1H5nOfs259au44+eLsPRvzrYXuD0ent8PvSdGiKYhoYJKrFDyRShs2ec0xdWKKBul7Gv9OB0UWZMmY1yP/Sh5cC4KXYuW9KUCPPpAPnLav4ml903HlPuXoipjJh6dkQ37epVGkZKPAmf92Z+uw7xpU7DQqYUntEHLJSm3AH96Yi7y+wJvrpiD6ZOnYN6T5WgzdDIWzx3nPESEEE1Bk72xXwghznQS7lCFEKK5IEEVQoiAkKAKIURASFCFECIgJKhCCBEQElQhhAgICaoQQgSEBFUIIQJCgiqEEAEhQRVCiICQoAohREBIUIUQIiAkqEIIERASVCGECAgJqhBCBIQEVQghAkKCKoQQASFBFUKIgJCgCiFEQEhQhRAiICSoQggREBJUIYQICAmqEEIEhARVCCECQoIqhBABIUEVQoiAkKAKIURASFCFECIgJKhCCBEQElQhhAiIFocOHfq3O54gjqK8qBCL/vRXbCgtRXmVMys5DdlZw3HL1AnI69EmlMzP0Sps/NtSPPaPVSi1+ZCElF69kTnsFkwZn4e0c01KIYQ4JUisoB4rReHkKZj1j3J3hp9k5Ex/FI98N9OdrqWoIB0Tl7gTkUjOwbRFj2BcL3daCCFOMgkU1P2OKH7DEUVXTDtkIie3P1IcQ3q0YgNWPV/qpCBpyF/wJxTkJpkpixHUZzKR+6Vs9M/qjU74AFvXFWNVcQkqqt1EPcZh8d+nIbulOy2EECeRxAlq8Rxcd/siVHC8ex5mL5qLW7qbJYaK5VNw+49XwMhtv8l4aukEeH1qadEKtBnmVOv9EYFtCzH25nkoMRMpGPe7FzBtqJkQQoiTSsIapYqeXxoSU4ecsVPCxJSkjJyC/C+5E68txV/XuOMumbkRxJT0ysctI91xZwtHD7mjQghxkkmQoJZj985QhR7IQtZVKe64lxTkDM52xyuwYXOpO14fSWhTI7QpaHOeOyqEECeZBFX5y7FozAjMWcfxLEz+658wIVLjUdEspE8sDI2PXoAds3JD43VRvQJThk/BCsZRu4/DI6umISeWGOrGQsz4Sxky/uNejGz1NB77x0uoPOjMb90Bfb96B75+RTvgww14ctmz2PQuFwDtug/FyG8OR4azyEvV5qex/JnXsfvjI2a61bnJyPhKPr51ZQczLYRoniTIoTousqaNaSM2vmIr/+FsLN3gjjns3B2Kp0bjkyqUFi3ElFtnhsSUjVn/NSE2MfVwuLQQDzy9E8kDb8TwIRno8Hk1Ni1diKc2b0Dhw8uxs+2VGH7TcAxNa4eDb69B4eJi2DYwUlk0H/OXvoSq1j0wNPdG3JgzCF1aV6GyMiSuQojmS8IapcofHYsR94WajtAjHwsKC5CbHJokRzcvxB3j5qHEqtXgaVj52DhHJmsJW0cNSUgZejOmzJgWvQ9rJFyHCkcIR/7oNvS3rrP8Kfzq9+tBT9pu4G34r5t7hOY7c9Ys+hVWvd0BQ8dPxvAunLcTT835Hda3HoTxU26EmWX4HAf3f452SW3daSFEcyRhjVJp3/ge8q027SzExBuvw9gfz8KsnzvDj8fiuq95xDQekpOR1Gofdm8sR9Uxd14ctO17ba2YkrQr0NP8QKCb4zhtgUk7DOjVzflfjar3QnNq+PQwDhx3xw2tJKZCiAT+9DQpBwW/mYYc60qrK1CyvNCpQjvD8hJUdchE/mhPzLR7tzB3SpKv/R7mzpvrDAWYPDYfecPSkFxVjtLiFZg37av46oRFKI1TVLte4hVNcg7aUgsv6IoePk1se8457pilB67u5+zQJ5tQ+JtCrHq9EkfChFUI0ZxJnKCSXuPwyFNPYfZ/5iK7h6usHVKQlTsBc5/4EwqGdgrNc0hJau+O1ZKUkYO8m/KcIR8TflaAuY+uxNq1j2DcwFCAtur5OZj5/2LtHRCiVbQ9PquVO1I3XUaMx6SbMtHhkzKsWfYgZt87D4XPl5mQgRCieZNYQSXJmbhl6gIsXrUWO3bswI6XX8CfFkw28c/SnVvdREBWRm93rB74k9Op+TU/Ati4ahU2uuNNQyskX/0tTP7pDEwaNRQZSdUoW12IB5bGJ+xCiDOPxAtqVEqx+jkrhbnoPzj8p6d1ktUbNfK7bT/Me1OaHEdYrxyO/B+Nx6ALgSNbN2CTu0QI0Tw5aYK6/x+FWPpaaDxp5Ajc3Dk0HhObt6LG2/ZKgqfzQII5iIP29wqWszrgAkYrWrV1JFYI0ZxJoKA6zrHqqDseTtW6efhBgf1pahbyv5OHMH+6bgWWlkXOi+qNmPebQsffhkgZnOWsoakow/Jfz8CvHnoCq/71El56+Tk8/cgDWPU2kDxwaNi7CIQQzY8ECmoV/jqlD4YMvwNTfj4LC5csxaJfzcKU267DiDEL3S5TSci+eyYm9zMZatm/AdNvHILrbpmI6QsKseJvK7Bi2SLMYXer4d/AwjWuTeyRj3vG54TGm4RLkXllF5y9txRrip7G038rxusH2qPvTZMwfkRtr1QhRPMkga/v8/78NBJpyP3ZXMwdm4kTuud7f5IahaRet2Dm/NnI8710RQghThYJfR9q+fJCLHpmHbaWbkVpBV2lfeN+Hm7/zs3I6hzll07HqlC6fCke/ccqlJdXuHkdktOQmdkfN39jHPKvT0MbvQdVCHEKkUBBFUKI5sVJ7DYlhBBnFhJUIYQICAmqEEIEhARVCCECQoIqhBABIUEVQoiAkKAKIURASFCFECIgJKhCCBEQElQhhAiIU0ZQN1R7PikthBCnISdNUJ/e83SYiP7g1Ylh04vKH3XHhBDi9OCkCepr1Rvxiy3/7U6FQ3H9+56/u1NCCHF6cNIE9Xs9xpn/fidaebjSONWf9PmpO0cIIU4PTurr+yiepMs5XYyI9u/QP2yeEHVTiVW/eRBrPnJGLxyK8T8aDl01sbHhsRlYjpG4d0x/d86pxalevmg0qaCyKp/VIQvj0m535wRElDf85y/YgYJcd+I0YW/lEjy8cwnWfrIXe53pji1T8fXMx3FrlI8Y7iq9FaPfLQPa3oklX7wNqe78E1mN+5+5B8vcKS+jMkowNcqXDw6+XYDbyoqwB7mYfcMs1Hxw5vCreHzTL7Fk/x7sbdEVuV3vwV2ZA9HOXUwOlk/F13anYu61k9An8LqQK6YdT7+bLmFUrsK8B9cg+T/uRX49H1prjGBVrpyHB9eabxiFkRHDdmPldBXUhFb56TZZped/W5VftHNRghqcsjHt6R2hb/87w8q7s1E4MR2zitzFgVOEWenBrr9s2x24bct8rPjkANqfOwSjLhiILv/ehQ+jfK8Qh1fgdxTTWDgUEmigPTLO7ho2tI72udbjW7DkLYqpnz1YtnES5h/ug0lZj+Phbhkoe3cSfr3zgLvc4XAR5u/ajryMRIipQ+UmlDrONKOPxLROKLIz5mFVqOIXIBkYee+9uNcO/+FcA3+ZgXkr49xQwsp3ckiooFoBpTMly675s/kfTVSZ7hdbwxuqmG7Ui18L6wEQC2m3F2DaYKBwTcIUNVg+mI9fV2zB3paOExxajCVD78fUq+bj4euLMSnFTRPGAazePN+RdYS5wqh8dsDJ4dB2NGbmLMPvPMOkS0yKEyjb9j/43WcR1r+vCKsPOc720lnIvSgVfXreiby2ziNm73o3AbB++wPYfMFd+G5Xd4ZIPF2GY7IjbkG5xLjIysfIdKD6jU1O3aH5klBBZUzUxEWPVNYrqrYblb87FdMx/8aPzuR+qgdQ9NYSbHHc47d7OtXqc93ZhtZoHeHbWQff/jUe3gfkdf06errzYqJtah1hAQ97f4f5e8owoOttuM6dVYMJEmWg6/lmyiEVXRxBrcF5ODy09wp8PzMnNrEXZwT9+2QAH1U1a0GNVtlrNKaa7wjhT3r/1LhOiiRF9X8HLjCiOupfXzNiSaLFVG0DVcMoR8U6IHtYmjtdS1FBOiYucSccToy1sjo/EWFR2dELsGNWKFFY/onpoXQ1y0/82mv23Sux+PYTy1HD0dVYy+8QnjUcQ6K4xTAOLMPssiJ82H664y734p4T6+Qnsu8t1PrHeji+FvNffwjrzx6Nh3v1xKqI66/Eh45LxQUc3+Wca8fJ8kFwvAy/374EXVOLkHMOl8WLp6HJkh4eSzPxtR2h8WqnmjnjL9Hjd6F4X7JTPc1HWHBgY6GTrwpDx0/GcNuSZeZ5Qyis1nrzbUDhjOWoTRF5OZyyZG5xy1hTdn/e6GWOWDZ7XOBrfDNpESpHWAw1/DiueXCGkxfoMGQ8Jns/ee7msRHRE5Y3EHOO9kZqKAwdh6ohtyDzjaUBla/+a8Z7bq5/3xsD7uA7zo0jYQ71/xyxZD/TvzuOk6Jal1Ol4P4jQr9T5m0oRQWOIA6ehoIwIaPYOWK4cxpWurHWHQvyT4i1lj/qSKQjsjYeu+PpacheMhFjHy03y3Nncf4C5DvjFGOTxiumPRxx9eStQ0pD7NvlSJLDOV3QZtdsTHouG0OeyUbuc9/GzNJXcdAkcnEE6/HXf43VLXMx/cq8+B3gx/eYdQ95JhffX3s/ivZ96i6wHMDq9bPx+LEMTLoiSvzzghwMaXsAK96aj/X79qLszYew4khH5HXJwa7tv8CTLe/C99Pau4njwMTT3IammvjcSGTsWI4Zv1lV43z6j3Hmjx/q3AohUWK6Rldza0TMbvdeU4WtwZSNQjDes7wMy2cUOrdqOFXF81Dax12PR0y9eRlzjEpWpiPV1Sh93WsoKlFFwfioFJs8szdscSQ6PTP8YWHoguE/crZjjhNFI7TdMDHicf0j8C1PmarXPojCje7yODFluTDZCGjIrYaXlVSuLHYeKhkYNuKKYMoX4zVjYZz3CXyrJu3I9GpHzE88hw0lYYLar0OWEVB20I8kqhRci7+ab9lYHc+ZLcGcG9ORnh4aJi7JxrSfjQsXs6JCxzn65ucWYMFooPCxRY4chki7fXG4Y80Yh3wnTclumyIaIVecP9ST2ckbLuoROPxhyLkcWYLZO1Y7Vi8Peed1RZvju1D07iTcU2p9DcVuCuYf7ohRaXfF5QAPHgMGnJeLUR3zkHtuV6S2OIAth57EzJfvwOMfu4kcykp/gNkf78WAS36Cb3d0Z55AKr494Jf4Olbgnpdvwg/e3oMB6Q9jUvtlePhdx6xn5uHg9qm47dnQg+Hr/7ofJYfdrHWw4VnHiZzgLPojnzfdR2vwXANv9FiofL/KEYNM9PXcz/3H1LpPU7YLh+Jbnhu+/xjnxnXOXLGvIaa647Bwga+sQpUjGplXelaelV/HQ6A/Mv3xyI2lKLswAxkXVqPqPXeeIwOljgtueMOc47C9DjLregy90LkGtsQvL6wJLN/hCOM33fWZdTli9ax3XZXY9IbjDCM+ACJRf/nivmactF7R7v9lCnoZSgO6thImqDd2vRHjeoyLKqoU0WAJb+Xf8fQwFFNgC2qtZ9Eax3mOzsc4nzlI65YNrKuoEdQQITdbK9DOrJ27fWn8pCGFDWETx2KRt24XK8ccl9e/CPMHTcc9Q5bh8fQcsE1nfeUKU12vFbu5mNo9PgfYrscszB8yC1P7T8fMocuw5Lrf404jyGVYtmutScMuUjPfLcNFF/wSv8ysw0GRc3Pw/WuKUHRDCYqu/z2mprZH0dZf40CXnyBv3y8w/Z3tSE39PVZk3YU+nz6JgteWub0MolGHOHTpi8wG3uix0uXiZMdRrcGDj0Xahlu2Yf7qaxckO+WqrgoX1A7J4anQJRnJjuOMxwn545F0fx0uvx6ZzkOu5ji4Qp0cpUtdvZwgbM7+8CG6N5Y4KN35DMxwh1BYxVt17oK+lzt1iB2ltftsemY4ovvlGB8A9ZYv/mvmhLTm3Di1ivfr3+NYSJigUjAZG/WLapN12Hec4WKnOo8lha64lWP3TuefU3W3ImmHEfeVMEENjJGmp49A8bCVNQJNF1s/aRj3GNPWumUbJqiTlm1CVff2X0eexxW2Sx3uPCYcjm9C2cerscIRO1b/1797q1ttd4ZXHgrFRo88hNFm2nG4sdAyA7d2CznpPQfKwKDDineKTOhh18f3INeuv6bvahGmc/rF34XCEz4O7pqNh4+Mxp29MvDq+0XYc953MemyDHS8aBQmpQzEwYNrsT5a9y9ixOEk4jhGU/1kVdGIhEf83LKxumgFJDT44nYuyRf7r3HHMd073nFXtSJUb7XaVPutc6JwhByuEVpXpCpfL3Vcc7irbjp83ab8MWqHLldmhrm/wMt7sq+ZCCREUCmmjIuyu5NXVBkvDd6Z1kFqSkiQDGno1sP5x8Yj62LDhgIYeSmaFQoXOG63zoakOgjFWJ3BEfSS+0aEueSIdOiJgfz/2V58aGb4SULrs1s7Q3j/UTO0au/GUW3/0tZmKib+7cZPW7Z3ciPy+s/uiJDGt0aqmXbKYaY9HF+L3+7cjOzLbkOfs3ahksJZkw/o2MaxCs6e7a2r2u86haAxzjNW3G5H99aIn9s/0i2bjdeeMIRVN6PhxjSd9OOHODJTb5/NkPs1DstU910hMkLrCEllqPrc4fK+TspTFOd4Dku3LjEB5U3QNdMYEiKorNZ3advFiKgVVc6LFZvWG1ft3BBnu6sCXu9pqvZLnCqqOx07RSjx9AqImdwC8wODekMF5+Ugm6p45Ekse7u2c/zBXatC5W87AAPOG4JJvv6jZsgaHeo2ZfuX9hvCqRPYs28XwpqfjpXh9xUhN9unfU9H/FIxarBv3Wa4y/11lFPF5/Tg0SYM4WXLlvkobvdD3JlCWXaE9Gzn37EDNY1pe4/SxqWiS1JoOjIeAfHT6E78FCB31MU0oESF4sf4qI1X1lG2BtBlxORQn01/ocJwq8xO9XaVqe5bIWJZ2GC1CVVO9TksLnsKUuOoNz7nuHk2RgVZ3kReMw0jIYLKaj27R3lFNVKjUyQYeyX+9HZ+zJQtwlj+HNUTM027PR/5KMTEMbUNUAbHlda08htXW4Lif9amMD0G3PFa3Hhp2A8HijArzI2WY3WxI4k9utU2gkWkI/Iy7sQA7MWysptw29oCzFxzE769YzX2OPJ1W1pdPymNwNHVuP8Fp3r+7B1Y5jY4lZV9Gzc9921Mf2U27n/pDox+4VY85DjGdufcibt69wklagh7H8JD73fF96/IrXHKQ5KHoN2Bh/DrN8uw98NlmF/xKlKThyOnzqvNEbFvulXusDjmBhSy20z6yIa15Lst5mv+6Gnx3VhY0+3KUrmyMPzXOnSFNfFJp2zDKAzLT3CVGx6LIS5auQqFYflCsb8TYq0+TJX5o1KU7vUKZ0hoq98oRVUs1Wc3fhveY6AJcUMXxcVO5TxSY1Sjypega6YRJCyG6hfVWOncNhRh9/ZBjU1Mw1v502+cgzR2aXL7jobIRcGOlZiGORhh03F4LAX5NpkbezVVdXd5ydBIMdQ0jBvDGK0bk7VCGhajdbtQhZUhCh1vw/1Xz8Koc9tj76EiFJmfn+Zh5tWP4/sB/Nqoa9JA9GyxB6s/XoFl+7fgwFmpyOk0Cw9n34aMBl8Fu/D4tiVo330qcj09DtqlzcTczpeibNetyNv4EPacdxdm9o3snMMwVW63y0tNnNLtbhRTtToStS2+D9p1bsmM0G2pyvSFrNmuvx+oG2PF2gdr0zhDcfL1J4pEBKrC8oX26cT+lD5Mw0q1IzfhwhkSWmd+x1AXpbrpj+uHOALsbj/un4Y2Gnf7Tnkju8VGli8h10zDSfjLUSiM7CYVi6iyqk8RJsxDl0pB5qv84gkZCCFOHcyPK97IbBZvA0uYQ7V4nWpdcLkVU/4k1Vb5JaZCnM5swHNrT/HGswBJuKASK6ps7fdDIeX8ZV8M/XKKQsouVpzHPBJTIU5fan8Z1Rzk9CS9YNr+zp/4BZOCKhEV4vSm9p2p/vcdnNmc1Df2CyHEmUSTVPmFEKI5IEEVQoiAkKAKIURASFCFECIgJKhCCBEQElQhhAgICaoQQgSEBFUIIQJCgiqEEAEhQRVCiICQoAohREBIUIUQIiAkqEIIERASVCGECIizzj6bn6gUQgjRWIygtm4dx7fchRBCRKTFvx04cvz4cXz++edmEEIIET81gmqhsB47dsz85+BbLIQQIgonCKoQQoiGoVZ+IYQICAmqEEIEhARVCCECQoIqhBABIUEVQoiAkKAKIURASFCFECIgJKhCCBEQElQhhAgICaoQQgSEBFUIIQJCgiqEEAEhQRVCiICQoAohREBIUIUQIiAkqEIIERASVCGECAgJqhBCBIQEVQghAkKCKoQQASFBFUKIgJCgCiFEQEhQhRAiICSoQggREBJUIYQICAmqEEIEhARVCCECQoIqhBABIUEVQoiAkKAKIURASFCFECIgJKhCCBEQElQhhAgICaoQQgSEBFUIIQJCgiqEEAEhQRVCiICQoAohREBIUIUQIiAkqEIIERASVCGECIgmE9Tly5fj/fffN+PPPPOMGQjncdnBgwfNtBBCnK40iaBSNCmYVlAPHTpkBmKX2WkhhDhdafFvB3c8IezcuRObNm0yotmuXTucd955RkTtOIWUyy6++GKkpaWhR48ebk4hhDi9SKigUkzXrl1rxLM+bJX/hhtuMOJaH5988gn++c9/4sMPP8RVV12Fnj17ukuiw/K88sorOP/883Httdfi3HPPdZcIIUTjSYig2io8nSndaH5+vrskOszDWCrFtG/fvsa91iXEXkG95JJLMHToULRu3dpdeiKffvop1qxZg3fffRcXXXSRBFUIETgJiaE+++yzptHJVu0tFE26RO9g46o2HaeZl+uIBQrwxx9/jA8++MCdExku379/v3GnQgiRCBIiqHSYHLxiSvGkA2UIwDtY4bUwD/NmZ2e7c+qmTZs2Jk9FRQWOHz/uzg2H87k8KSkJF154oTtXCCGCpeVMB3c8MDp06GCc4+7du/HZZ5/h8ssvR3V1tZm2YssGKAohxbRz584mD0ME/D9kyJAwMY4E1/v222+jffv2Js8777yDjh07RsxHd7pt2zbT4MV8hw8fRvfu3XH22We7KYDPP/8cO3bswMsvv4yXXnrJjNPRXnDBBWGhhNLSUvMgoDDv2bMHJSUlJg/3g4JtG904j8P27dtx9OhRE2Zo2bKlu5Za3nvvPbz66qtYv349NmzYgLfeesuEM7hdb/k477nnnsNHH31k9pexYJaD+8LtHDhwwIQ+/PBBUlRUZLbNMgghEkdCHCpFxtvv1AuF1g6RxI+xV+blOmKFQtKqVSsTH40E57dt29YICgXIDx3sa6+9hi1btpg0jMdS8CnEFC2KlZ8333zTPCD4sMjMzDThDIocnTjFkYLIxrLk5GRs3brVrNsLt8l5xcXFRnB79+5tHiSdOnUy637xxRcjbpf5Xn/9dbMdPhzOOeccU2YKbaSuZ9wHinyXLl3cOUKIRJEQQeUN3FBsa7/9HwsULwoXBZyu0gunrQumm40EBYxu85prrsHVV1+NSy+9FP369cPgwYONANOteqHQUcyY/rLLLkP//v1x5ZVXmvkUVYos59ERc31du3Y1ZfAKHp0p3SuFmz0bmIfpGergwLQUYn8Yg06f826++WbT2NenTx8jwvv27cPevXvdVCG4DgoqnTvdsxAisSQshjpy5EjjQv1QWPwNUl6Yh3kpMrFy1llnGRE8cuQIKisr3bkhWOVldZ5V/BYtWrhza2HrPx0sBddfXlbrKUYUZabz0q1bt7BQAF0iBZvC7q16W2dMF2rdMQWRIQr2MsjIyDDl98L8dJR0nf4HC/elV69eYQLJtJymSHuhmFJUKehCiMSTEEGlUDIe6nVk1rVyvm2QKi8vN/O8jpZ5mIaCGw8UPgoXnaYVP8YdKZYUObrYSHB7HMrKylBYWBg2PPHEE9i1a5cRagqZhcLpd7sMOVAYuS9sKPPCZV4ornSzXEekrltcD8vL8vsFlcLp3zZDJ4yreqv9FG2eBz4U6GCFEIknIYLKlnuKolcM6P7oOhkn9A7+jvzMw7wc4oGilZKSYkTFulQKCt0l5/tdoOXYsWNmSE9PN1X4SAOr1f4+rpHcLok23wu7/nKbXKdfbC0UWr+QE8ZMvY1VhPvGfaSY0pUSHkceCz5k6uqfK4QIjoQIqq2yW6G0wsppxgm9Q6Q0zMt1xAur7exnyuo0xYjV/focGgWQA0UpNTU14kCxiiZ8DYXbpJP2C6aFLpaiGqsY2jgpHyJ0p/zBA0U7Usu/ECIxJERQWQWlMDKWSqFkq72/Ou0fmIawkcaKbLzQvTG2STFhyIAOjbHTukSJosV8rIJTxJoCloehAW6T1Xo/FEQ2MLFckUICkWBaPlDYaMUGKoY+6E6jhTqEEMGTEEG1UDRYrbcCaYXWwnHbdYr/mZautTGwgYYNQewvSjGiyNQFhYjCU1VVVRPT9UKXS5EKErpdCr+N3VJAvTDuy7AFyx5P6zydOF0vHTp/Pcb80UIdQojgSejdRpGkQNKpEo6zOs/5HDhuBZRdhRorpoQCRKFmlZ+CEovDY9cnVpk3b95s3g/AblQUOnakZ2d7Vp2DhoLKngkUccac33jjDeOq161bZzrqszzsmxoPzMMQBxvS2DDWUKcvhGgYTWJfbCu+vcH53ztOcfW29DcWxg3pOmONH7LVnC9LYRcmulGKGsWVvy5iP1KuK2joHNlXddCgQWY7tvcDwxRsBKNbj7cxic6XDxGGEiiusYYLhBDBkPD3oYqmhT8WYLjDG2oRQjQNCrCdQTB+ysYoVvs5CCGaFgnqGQTFlCEDxmf9fVWFEIlHVf7THHa7YsMW+7XyP50p30EgQRWi6ZFDPQOgM2XslA1SfMOVxFSIk4McqhBCBIQcqhBCBIQEVQghAkKCKoQQASFBFUKIgJCgCiFEQEhQhRAiICSoQggREBJUIYQICAmqEEIEhARVCCECQoIqhBABIUEVQoiAkKAKIURASFCFECIgJKhCCBEQElQhhAgICaoQQgSEBFUIIQJCgiqEEAEhQRVCiICQoAohREBIUIUQIiAkqEIIERASVCGECAgJqhBCBESLfzu4403CBx98gC1btuDAgQMYOnQoLrroIndJiE8++QT//Oc/8eGHH7pz6qd///7IzMx0p2Ljs88+w86dO7F792589NFH+PTTT9G6dWucf/75uPTSS5GRkeGmDOfjjz9GWVkZKisrzT4wD/chLS0NX/jCF9CiRQs3pRCiudEkDvXzzz/HO++8g+eeew5FRUXYs2ePuyQYzjorvt2gGD777LN45ZVX8N577xkxJfxfVVVlRDMSu3btwgsvvGAElWJKmIf7s27dOmzYsAHHjx8384UQzY+EOtSjR48a0aLgWNGytG/fPqJDZZ433njDOMhoMM27775r1nnhhRea9dBZxgId8ksvvYR9+/aZaebv1KkTLrjgAjNv7969Zvzqq682yy3MV1JSUuNKu3XrZvLRSb/99tumLGeffTb69u2LXr16ubmiw32gU+d+pqSkmKE++CDgtridPn36oE2bNmb+/v37sX37dhw7dsxMW1jOSy65xJRTzlmIxJNQQfVW3ykCF198sREtilI0QY2FjRs3YuvWrWY8nur+wYMHjSi+//77OOecc9C7d2/07NnzBLGhy/S6Xjps5rNidsUVV4Rtk8711VdfxZEjR8w+cr/OPfdcd2lkvILKtBRhrjsaTLdt2zZzTKMJKufb7VJceZy5L127djXhCCFEYkl4lZ8u6fLLL0dubi6uuuqqGhFoKIx30p0SOq94hOKtt94yYkpYJg6RnJs/hEDXamO63OZll11mxi10gcnJyWac5Ysn/svjQSG2jjkaXE4RbtmypTvnRDp06GBivxwo0BRdHn+W319DEEIET0IFlW7pS1/6EgYOHGhu9iCqnXSJNsbJanK7du3MeH3Q2TFeSugi2fAUK9XV1Th06JAZ79ixoxEpL3SG1mnTScYjqK1atTL5GbuNVlngfC6n+NbnfL0wLQe61ARWRIQQLgl3qEHSGHdKEbYukKIYjzCxSm2JFqtlCMNC8WaYIBYopozZsnoezaXaMAnjvXU5VD8UdzpTCjGFWwiRWE4rQaWYWnfapUuXmN0poSiyak0ofpxmXPQvf/kLCgsLzf81a9YYN+qFonT48GEzznzRhJjzragyfhmPI2S4gO6dLjQSnE8hpZizPLHA8ABjuxRUNqDFI8RCiIZx2ggqBbCiosKMU1gYt4wHr8ukgywuLkZ5eXlNVZ7/GWN9/vnnTVjBQmH0imMsYQuKWKwOlZx33nnm4cAysmxeOM353Gc2pNUFewGw+xYHNtzR1TKeGmsPCCFE4zhtBJViwcYVQkfHanJD2bx5s3GdPXr0wODBg03jjV0f53M5wwuEwmidbazE61Ap0nTczGe3a6E7ZQy0c+fO7pzotG3b1oQFOHB/mK+0tNT0ARZCJJ7TQlDp+OyPASgabIyKtzO/Fzq9QYMGYciQIabFvl+/frj++utN9yLCsIKN1ZJ4G9PYaBVvFduGEyiotlrPajun6V7pYuvD28rPHgxZWVlmnvdhJIRIHKeFoDKuaWOndF+2i1JDYbiAcUUvFNnU1FR3KtQQRHfKRiOKeDxQTOMVfOZhTwE6ZBvH5X8+TGyMNV64Tu4r//udrxAieE4LQWXfURvrpOg0pC+rV5CSkpIiCh5dor9hifms22TVP1r1n7FOxiwJBZhCHC98WHDf+KssCim7X1HoGxMDZTm4D9wfIURiOeUFlY7NdsZnlZjdpRqCFUoST4MRuxvZln1Wxb2NW174KyyLd1vxwFABHxgUZ1bT+Z/utCHibGGZGUu1DwUhROI45QXV9sEkFKqGujXGEm0cMtovh1gtttuiM7RCRpGz48zrF2RO2xglt8F+rg3F9jXljxC4TU43FLpSxoIpqI1ZjxAiNk55QaXI2a5EsXQd4pug2KeUb7ay4kgocvbXTKxS79ixI6wlnsJtu0uxym4bqAjzWUGiW7bdtyycti6aaRsjqHTDDEmwbGypjye8wZgr958DXzDDrlOcxzLxgSKESCyntKDS+XkbU+oTBVbH33zzTRNvZZWZomlh1Z0vQqHLZTWYLyZhn1O+1IT9NlevXm2ElrAhxyuoFDm+75SOkTHUl19+2byxiu9T5X9Ocz4Fn9to7K+SbDU/3sY3loHHiwMb8Rgn5k9s2T2sMb0ihBCx0aQvmKbTtG+forDV97Yppn/xxRdNX0ymZzenukSGgvqvf/2rRoT5Rii+jcoLXSjfW2obufx0797dvMTF37LPajPfcMV+nZF+rcSqPrfF/EKI5skpbVsoqLZVnQ029VX3WVVmv1KKGzvKp6enu0tqoeDdcMMNpp+mbTzieulKv/jFL+Kaa66J2E2KDo+v7Rs2bJjpB2vLwnWw3+d1110nMRWimdPkn0ARQogzFQXWhBAiICSoQggREBJUIYQICAmqEEIEhARVCCECQoIqhBABIUEVQoiAkKAKIURASFCFECIgJKhCCBEQElQhhAgICaoQQgSEBFUIIQJCgiqEEAGh1/eJQOGnV/i1AH5xoE+fPg36Qm1zhC8+5wvSe/Xq1egvPiSCU718pwoJE9R33nnHvJ3fz7XXXosvfOEL7tSpDfehvLzcfAGAX1/lJ05Ydn4JwH60j2/w5xcAotGtWzfzpQGb3hJvPn5UkHl2795tvn/FF1wzDb8SwAucXxTYvn27+Z7U0aNHzbIrr7yy5outhPn4yZa+ffuic+fO7tzgoJjyawa66ULwPPBTO/wqRX0vH2+MYNnt+L8kwRetB3UuJKixkdAqP99mP2LECOTn55uBNz9FlkKVCPiG/5UrVwa2fn551IoTv8tEUdu8ebP5DhUFjPDi4kf5/IP9wiqPgV9MSTz5+LFBHjfeNIRfJeD3tfg1A/s85Le0KKh0hfzyAC/+TZs21ZTTCi4/IZMIMeVx4mdl+NUE3XDR4XFav369+axP0PArFYMHDzbDwIEDzbzXX3/dbDNWElm+5kDLmQ7ueKDQDVGQ6OisS+JXPHmj86TxkyNBwyc0n6QUjYZ+btpLp06dzEf3WFaKKp0GP+THjwdyHgWPIshPrXgHfiKFX0Hl56DpBiN9uiXWfBRCfr2Ux5KOk9/hYln48T2mp3hxv+kOKbL8TAvFmOLPddly8qOF/KQ018vPyQQNP1nNY8NzzfMsQg9NfuzRezzsceL1aR+ehPcL7wteu/F+UDHSsec6eP3w+238791WXSSifM0JHZk68DtLXrAUoxYtWrhzIsNqOb/TTzGL53v4kfLRKVBMeWNS3L3bpvBa6FTbtWvnTiFsnE6WoQB+udU7X5zZ8Hrl99HsZ9hF4kloDJXOyvtlU/vVUxuH9MJPMfOmt/hjrTYvn7gWfhzv6quvNuP+/MQup4Nbu3atESwLww/+MtQFt79t2zYTU2W1Olpeihe3xeov9z1WQY2Wj9V2DoMGDTIuNhJ2/+hM7VdebbyV1f+33nrL1Ay4joa4C4o699tCIae4s3pPWCugA/bC6mekuCHXtWvXrrD8hOVjSCI1NbXmy7Z0RP7YIB8KdjmxjWCWSMsJawTcBz4kef64Dzyf3q/fRitzpLIRrpv5vY1vTMvPl/NccZ43huovK6Gj5AcjbYySoSWms/tsl9eFPU7+WC1rUtxHHmeKa6TjTuz26KjpRL00tHz+a8Ied28jJddDaBZ4fOmOSbTzcDrQpFV+Cizp169fjbviieGnn3nyv/KVryArK8ucJIon/9uqOy9SOjcKBKutPAkUDVaJeZFzGWOLvGEZP2I6zuP6KTas9nD9Ni8vQt5kdWHLxoEXJrfFsnM70VwqRYxl5TZ4c9fnZi2R8nF7FEM2iHFfeAGWlJSYz1nzwcLjQwfCY0nB50XMY8194wXKkAWnuV6GAux5iAduk1VANkawXAwz8FyxXLw5WC1kOXgO6K4vvvhic+NwXiRYTooKb37vzcUyMz/zcZ1ekeD6uF2bnstZBh4HHiOGQnidcTlF05aL8DhR9OgbmI7Hl/B88ibn+eS6KTI8336xITy+LDPLZM0Bt8+QCh+E3JbdHq95LuN2uE1vVZx57XFiyIbiZtfH+4WNn9XV1WZ/Kd4sy549e8z6oh1PEi3ccvDgQVNGbpPr4r3BB6o3DUWS2+AxoIg1tnz2vDDuz+PNdFw3t8NrnA99ex55bnhceU3w+rTnkGbMew5PJxJa5edBZSNRYWGhGfjE6t27d1hVmvN4UL3zeWDpLnnT2ichHaHXsfJE80nGi6YumJ+C5G2IYV6uvz4oarzAeGExP7fFhwIFKhK8mCoqKswNyIsoVjcYLR9vFMZCCRvDeFHyoueNw4uTrpzHmHB/GFvlvBdffNGIKZ0DXTvXyXU988wz5jz87W9/M9urD26PYuR3NSwDbyArHomA4kUYF7bwXHAgvLEpZiyLbQTjsmjl8l479rh6H6jcPx6nSHD9XM5jYctFEeB6eNNznHCbPGZMa8sUDzz/1tkSrocCxHXGe5xZTl6nzM/jwnXyuqeI2X0gPI683rznNxqxlI/r47H1u1GaED78KcBeeM/z2rXHi+ebx5SifjqSUEHlwfa28rMqu2bNGnPTW3jxUxjtk9DCWB+F0Aoq4XhxcXGNQFMs/Gn88ITRnVIIveGCWOBJppBfddVV+PKXv2wGrotPYD75/fDBwKc4q+v2xo+F+vJROOhQb7jhBlNtz83NNeJJV8LjR1hWuq1Ro0aZgU6fDyseG7pG7j9vgJtuuslsg62/3G5d8OZgzDiSs6UYsVxWTILG3owUBa8AWHjD8fryCwHPD29oip2F+0AxsHCc81gFphjEghV2WxYeGwoEt28FxQp1Q2oChOvz5420P9Hg+V63bp0ZeL55T3mr49wHOnq7z/YBwHRe8YtGLOXjeaEg+tcX6aFE/GmZjvcsr9t4HyKnAgkVVD88cfZGp7jxoFEQKYxWJO3g76NJEf7jH/9oxMAKdCwukydn2LBhRrStW2aooCFQ8Oj8eFFEeoJyv+gYY71ALXXlo0vmRex1rhQDK7y8sSPB9dHh011ynBc9jxcdHP+zOkoRrwuem5MFjwOrjNxXigNFglVWwhuN1w4fCFZA7MBj6YfXgHVAhOO2NwSvBeZjuKQueA5YFh5vK0R8qFCkeGz5YLFC5Rf5poLXuO02xcEfh+Q+UBTttcsys+zeWkBjsOelOdOkgkrshUmse+QNbkXSO9DdMj1jKrxROB1PQ5IXNk5xnWzsolh7XXI8eG9ML7yQKFC8YCmMsVJXPh4fOnWm4YUfiWjlYb9Uiqd9ADCdFWv+5zQdZl3w3AQNtx1rKMQKH8WBYsH4KIWP83lsuH9eAbHDgAEDTngwRYLujekZG+b1ZRtJImG3SdHkQEdG4bTXM11XNHd2qsB9YOjKusS6aiANwR6j5kyTC6p9KlooGBSUeKuOTF+fw4oEY2lsCa8vVMCbxl+t5/YYA+JN42/QYnoG7ul6eKPHSn35KCS8UFk9tceN/+nWePFGEm+GAVhWPqgoXhRrVvVsFYo3E8fr60LFGy1atZ7iEakKGAssi7faR3hz11WttXFb65op9v7qY0Oh2+dx5vVgj1EkeM557O2+2wcTzwPPB/P7r4tTDeueWV7WEimw3IegiHZerKs/lR84QdCkgsoTyOobL14rBGwFJK+88kqYwNGV2l882ZuWMUMLW4D9MVFe2DyhNq5IKAbsdmThNngxMV1dT1PeOPyZZlFRkSkbex288MILRvwoyv5YJ+fzguEFy5vND93Pk08+adwxBcVSXz7GPykmPBYsC3ssrFq1yjRKMY5qW60tLDdb+NlKS5Em9iZnyzaryQyxcFv+ffDD5VwH18cyWugSGUbwNgjFCs8lt839sTcd1+09t4TzvA1nTMsb1bpm28jIffGKIM8th7rgunbu3OlO1d7svB7q2h+eI8ZfmdYrnByn0FvXWhc2fhspZNQUUMwoajQLLIu/vI0tH2P9zM/70yuqrDHx2uR1eSaT0G5TbFDggbR9KTnOKpa32s6LmDcmBYJiYdNSdJiOJ5g3IQfGuuxy9grgxcGbgcLCdBzoyChaTEN3xSovT67NywYl3oy2/2o0WC6KLwWINzZvGMaa2O2KXYj81VbGK3kjsyz2ZvdC8adocB1cbrtT1ZeP6bgPvEjpOvmwoCBx/1kWvwBQYHjh8tjZMjI9byIKIfefx4mx7PpufsIHH48xy8njwIE3CqviXKeFYhKp644flonLmZa/3OL6+NDjNcBjzWVcL7dBV87rgmm43/bhQrjfPC48rtwvWzbuO4+l3Xf70PU6eZbVPrCZx9Y6IvWn9MJtsoy8LrgNe+z5n/vDa4ZlstuOdEy4jANDDNw2e46wbLxfuM98iNn8hPN5fLhe/7m2xHrsLbyWeFy4z/5rrrHl4zKeJz50eP7seeE1x5Z/btsS6dwQzuf979/W6YDeNiVEM4NiR7PDLlCxPFRF7Jxe8i+EaDR05HSKdLQiWCSoQjQj6E4Z/2ZVP1oIQTQcVfmFaAZQSO3v5f3vOxDBIUEVQoiAUJVfCCECQoIqhBABIUEVQoiAkKAKIURASFCFECIgJKhCCBEQElQhhAgICaoQQgSEBFUIIQJCgiqEEAEhQRVCiEAA/j8AU6I1RC+D/gAAAABJRU5ErkJggg==;" vertex="1" parent="1">
          <mxGeometry x="126" y="265.76" width="173.8" height="148.24" as="geometry" />
        </mxCell>
        <mxCell id="9oymTsqKh7B6sWfHl0c2-6" value="" style="shape=image;verticalLabelPosition=bottom;labelBackgroundColor=default;verticalAlign=top;aspect=fixed;imageAspect=0;image=data:image/png,iVBORw0KGgoAAAANSUhEUgAAAVEAAAEfCAYAAAD4JPVeAAAAAXNSR0IArs4c6QAAAARnQU1BAACxjwv8YQUAAAAJcEhZcwAADsMAAA7DAcdvqGQAADZYSURBVHhe7Z0NfBXVue4fBcUPjAaNggY/CEEJSgUVCdQSoA30aoRao702cs8pcM5RqrfBX6/IPYLRXsXTK/HaEs+5QM9t3PWcmlZB9FeIoqDFgCJRPoKCQZFYlCipUapUsXeetWclk529s3eyMgnE589vmK+11qxZM/PM+75rZc9RBw4c+BuEEEJ0iKP9uRBCiA4gERVCCAckokII4YBEVAghHJCICiGEAxJRIYRwQCIqhBAOSESFEMIBiagQQjggERVCCAckokII4YBEVAghHJCICiGEAxJRIYRwQCIqhBAOSESFEMIBiagQQjjQpb9sX1dXh8cff9xMXM7MzDTbL7/8clxzzTVmLoQQRxJdIqIUzDlz5mD9+vVm3Yon53Yb4XokEmnaL4QQhzuhu/MbNmxAXl6eEcvRo0fjN7/5DdasWWMmCuZbb71llrmPYltUVGTy9DQanyvBlFFjMLO81t8ihOgJhCqiFMUf/vCHZvnWW281omld9t///vd46KGHzLK1QJmGeW6//XYzT0btkmnIzs6OmcZg8oy5iKyv91MJIUR4hOrO06qkBUrrMzbeSeuU0AoNQnGliNIypbC2BUV08v17kPv9PGSd6G9srMWatVWoa8hA/s8ew6LruzI0UIsV9yzEI++PxH2LpiPL3yqE6LmEZonSJbcufHs6jL7//e+bPMybmls/EON+NB/z7/Snn5fj+acXoWhQPSoXR7DmkJ+sS6jFpvJKVDf6q0KIHk9oIsoeeLJgwQIzbw82jy2j3WTko/B7I4DdNahVCFIIESKhWqKkIz3tNo9LB1Of3sf5S81EY6jTsHSHvyFA3H2VJSbOWlIJNG6MYO7fjccljLuOGo/rfroU1Q1+Oo/K+YzHzoIJQKxfgMl+jHbaEl/F/bKa1kmg/PrnyjDrmjFm/ZLx01D6nB/T3V2J0llTMMaUNwZTYo7bzEHUPlWKWYV+HU1suAQrdh309wshwiA0EWXHEN3yZCTqQEolb1vs2bfH+/8k9EmLrrtwcNdS/Pinlfj8sum4q3Q+bh6RhtplCzDjnyOwtc8pWIiFpTfDRHqHFmJ+KdcX4kffyjD72+LjDSWY8WA1Bl97B+69vRDDDlah7B9neUJaiZJ/uANVJ12N4tJ7Mef7maiLOa6lZslMXFdcgbrTmXahV84kDNz3JGb/YCaWbvcTCSE6nVB759uCg+spoOx8sr30QbgvlR76eBzcUoZfLatD1rRCXN3f3+hAxa/WYlxZORbOKkLBVUUo/rdHcNfUNDRWPoknt0TTZF5a4O0bBmNDn5yF3Ku4XoC8IclVfMXag5j168UovqEAhTPuRXnZzRiBaiOk2767BI8tmI7CqwoxfcES/7iVWBW0mNctwOz792BS6XIsX1SMIu+4hTPmY/Gv70NhWhUW/DICjVUQIhxCE1Fakm2JIIcz3X///WaZIsoe+SDMm1ooYA/W/qoEJfdEp7me6zv+mqX4eOx8LJybh04wRJFzQzGmD/VXDGkYN3acN6/26hnd4kKOJ5D56f4KuTgPueZ4BbjxRyPMpij2uFWoeye6BWjEimUVqB1dhOlXxVi96fkoyPfasLIG1V3awSbE14fQRPSss84yQthWXJM98XZ8KIc2WdG1eVLr1a9D1e8jiJRHp4pKII8WWWkRcnr5SRwZdn5QyKKknXCymde9595z1br8NKSx+EsHIyvmLWCP28w2bONwgEAcNjhNW8w2rcMedbAJEQqhiSjddfKLX/zCzBNBa5Miyr9cspanzWPLaJtczHl6J3bu3ImtL5ajeEI9KopnoKSy88YZ9ekkMU5EwvJ790EffzExn+Dgbm824WYTg40//Qh5nRDWEEK0JjQRpRVpx3vSykwVpu3I+FLSp38ubv75vSgaVIvIA6WojNuL3dM41nPbvdnBNIzw47Ctp7xWFq0QonMItWOJ4z1pXdKyjNd5FIv9ayVyyy23mHm7SctD8e1FyNoVwcIHKxG0R9NOOMn7f1vcOGbtnm3+kgu+oHUpw5B1mTdbt02D/IXoBkIVUQqo/dNNiij/1DNejJSxUPbSU0CZJ96fibaHtAnFmH19JmofXYjS55qVJSNnMHI8WV3zXEtxxfYyRB7tDAUaiMzzvdnHjS3LD5UM5I3NRxpWYNEDMeflcXDLUkTW+itCiE4nVBElVkhtbz1/kIRiyonCOXjw4KZfebJpXQQ0Shryb5uNgnTPrb+/FGusslx8Na4em4a6396BG/+xFJGnVnhu/0xMmb4eWde37jxqP1nIGprpiXIE990TwYrfl6H0t+H36GRePws3T8jwXhqzMPnG2Sh7dIV37KUoMSMVFqBW4+2FCI3QRZRYceSPjbBHnusUVCuc7FiyP5HH9U4hvQCzf+JZaJ5bv+Bfq/yNWZheugRzpmahsboMJcV3Yen6k3D1Q79E0bmt/8KpI+TdtNAr3zu/8hLMvr8Ce3p3QTCyVw6mly1H+e0FGLxvPUrnz8bsOUtR1ZiJwtKVmJPvpxNCdDpd+sv2QgjR0+gSS1QIIXoqElEhhHBAIiqEEA5IRIUQwgGJqBBCOCARFUIIBySiQgjhgERUCCEckIgKIYQDElEhhHBAIiqEEA5IRIUQwgGJqBBCOCARFUIIBySiQgjhgERUCCEckIgKIYQDElEhhHBAIiqEEA5IRIUQwgGJqBBCOCARFUIIBySiQgjhgERUCCEckIgKIYQDElEhhHBAIiqEEA5IRIUQwgGJqBBCOCARFUIIB7pGROtrUPHALEy7ejwuyc5GdvYlGH/1TMwtr0L9IT9NIlzytqIGZYUsIzpNW1Lrb08Fl7xCiJ5K6CLauHYBrrtyCub+ayWqttehMboVddvXoOKeaZj8vRJUNpiNrXDJG4/GZUuw9DV/pZ245BVC9FzCFdHtS/Hjny5FtS90GaMLUDStyJsKkJsR3da4PYI7ipeiJtaqdMkbj0NVKHt4hS/E7cQlrxCiRxOiiNYh8uACVPkimPtPj2HlIwsx/8753rQQ5U8/hpvHppl9jevKsOQPQYlyyRuf6l+UYukuf6WduOQVQvRswhPRHatQ+Zy/fM50/OgnIxCVPZ/0ESj++0JkmpVGrPjDk6g3yx4ueeOxvQyli6q9hSzk54+IbksVl7xCiB5PeCL6Th2q/EWMHom8Xv5ykHGjkZfuL1fWoNq65S55YzlUjdJ5paa8zOtnY8aI46LbU8ElrxDia0HoHUttMxCZ5/uLngu/p10d3qnkbUTl3XegjB1C6QWYfVt+S4u2TVzyBtmLVQ/Ow7wHV2Hvl3uw7pFS3H2Xtz5vHv5l6Wrs+ZJpPsWO5yIo/Vl0+7yfleI/X41jW3/q5f+PX+Bem+6ue1H6b14Z/m4hRNcTnoie2Md3tz3Wb8KaeJZiYw22rfeXPXuv7h1/0SVvgMbKUix8lOqahoK5d6HAWq4p4JI3PvVYXfbveBk5mPhfxmH46cfh091rsfjX67Bj5b8jsr4BA8dciSvzhiPj6AbULF+M3233s5LPNyPy0GKsevNLZFw8DldeNQljzz8Jn+3d23YoQwgRKuGJKN1wKzy7K/CrxTU46K8aDtWj8oFFWOGvtsAlr4W9+/8cAWUw64b7cNfUdtiRLnkTsX8H6gfPRPGNnviNmohrf3wrJp3jbd+9yhPQ4zDp1ltw7YTLcfmEa3HL9ZegLz7H5o2bonk9Pt+0ATs+BwYVFGPmVRNx+aixmPRfb8Hc2VMxxE8jhOh6whPRXvkouinXd4EbUfXAFIy/Zhbm3lOCknvmYub3JmOWsfTi4JKXNFSi5Cd+7/6gIsxpjyvukrdNBmLUhAH+MumLS4YONEvHjZyIsX3NYpSsi3D+Cd78o3rsjW5p4ovPPvWXfNL6eiUJIbqLUGOiWX//S9w3LadJhOq3VKKiPIJIeQXWbG9ExoQiFF7q78QIZEQ1xdDhvIdqsLT4DkQ4JCk9F3MenI+8VFXQJW8yTjkTg2L6pY47/ngzP/OsQWbezPE4Ljbt8EswxNu259mH8Ivfr8Ou/SaYKoToZkLuWEpD/p2P4bFFc1A4LgeZvoueMSgPhXeWY3lZEbJ6R7d5W5HWIu7YkbzsDJqNBes4bjQLRT/7JaYP5fZUcMmbAkc3VbYVvVO5Cn1HoujHRRg7sDfqX1+F//fg3bj3l7/Dpg/9/UKIbuGoAwcO/M1f7noOVWLuBbNQweWhN+OxJ4s9mzJF4uXdsRTTrvRccZOgfRT9zzmo/V8dzLtoJ+bn+yutYO/8w1iHsbjpJ5MQdOhRHcG8J3ZgyPfuRlGLE28jD2nchXXPPI21W+rxubd34q03YVw/f58QoksJ2RJtm8Y/rMQqfznzm6NTF1APl7xHPGmDMPb7t+DWgkHo/dVebN6o/nkhuovus0QP1aDs76ag1AxTGoHixx/DzReZPclJlPf9NShbvLbNIT8Ha9egYl2dWc4cW4i8rD5mOeeKcah/sYN5p85HYcK6d44l+nnjp+id1hctggK1y3Hvr19F+oRi3NQ0nEEI0ZWEK6IN9ahPy0BG7F8cHaxFxT/Pwtxl0R72tKkL8fzPC1r2grvkbYPaJdMw+f6o0557+0qUz8gyy6nQsbydI6J7V5bi4Y3AwIuHY/jpffHl/rexaVONJ/pDMPXWIoxUF70Q3UK47vwrZRiTOx7XzZqLkn9ZiopHy1DiCeCU8ZObRJDDiO6bG0cEXfL2QNKzR2JI2mfYu3Etnn7qaazauMtT1HGms0kCKkT3Ea4lWlmC7FkRf6U1aZdOxwMPzUGe/9N2LXDJ2wZdb4kKIXoy4VqiOfmYM7MAeRdloUnrMrKQM64QcxatxEuRNkTQJa8QQnQR3TvESQghjnC6dYiTEEIc6UhEhRDCAYmoEEI4IBEVQggHJKJCCOGARFQIIRyQiAohhAMSUSGEcEAiKoQQDkhEhRDCAYmoEEI4IBEVQggHJKJCCOGARFQIIRyQiIoU4SdL5mHePG96cJW3JlKFn3Y5nNvscK/f4U6IIlqLpTdmIzs7ZrpxqbfnyKFyfpxz4DS/0k+RiIOofaoEMyeNiaYfMxkz76lE3SF/d6L2CUzTltiWakT1ktmYMobbx2DKT5eiusHfZWlYgdmjrkPpa/56p+J/8+nUqbj77rtxd7zPOH/t2ISI90IpXRmy9PA7XHxxxUyhH1ekTPiW6A2LsHPnTn9ahKL1CzA5RCHlJzw6T6jrse9DztOQOTQHORcFphOPNSkSUbNkJq4rjmDNJ4NRMK0AuX3qsaZ8FmbcXelJIumDPqfFlGkm+0v+mcjJjn5+pO7ROzDj/jqMnLscK//jZmRtXoAZ967wyyGNqHxgIWquLUbxxf6mzmTvZtTsB4ZcONLfIOKydxVK55ViVafrWzrG3uS9vPgC43TTWOClhzHvkU3+/hQJrX5fb7rYnc/H/EVFwPq1WLPD33RY04iDRqmGoeh/L8fyxwPT/8gzKeJSF8Gi/1uFxvQCLHy6HAvvXIjyx+9D4TmeyD+6BJEtTJSJotKYMjndlhf98N6E6Sgax4U6rKr0rN4bZmD+VTnIurQIswpz0bhsE8wXo8m6Mix8JQ9z/inX3yDCZySKPEErntwNNvmASfjBmHRgZ41nD4vuRjHRlMjCwCH+YgrUv1CFSs/dzry2EAX2c/Dp+Sj0RNDzz7BmXU10WyvqEHm0wrOiMzH9hiLvf3IQOOTJ+MDmj+JlnR34QN6hapQ+uAojf1KMvK/DZ0+FYcA3cjz7tB71siq7nd7+vMuofZeOdhxR2rEU065cgOi3ND1Gz8HKR6Z7KZsJfm0zSi7meJbedJbVIn8VJmcvaLm/1ddDi7Bo53zPNm6LWtQ1mXupU/1mNF46YsgwM7eMOJ/rNajeW+fNKagxvFaBJys903dCsW+FNrNn3x7v/2hrmDZMzwIDCjWLSxE5dzae/27HFNR8z/6lYIB1CKbeXeTZWVE2PTIPy3ZGlxuemId5T3gpWn0n38d8R7/ecz2LMSlooNGNfHgdMoL5/G/uN9PyuCR4bNLyuIxJLgO8bTlb/XTZU3H3jSwhuq9F6YnqHK9uHtFjx9TJpK1Bjjm/6DHqx9zkWaOIxoz3R5Ote3ge1nnzdLMv2BAx9Wqqrxumrh+NxU2tYtW2joXIeaOik+rnx8f9sgxx0pk6wdv+7XrTvvYOa33MI5+utUQ9oSvxRLBoUYx4UeA8AcxaZGOnKzEHsbHTSkTWjsPKpvjqTiy6oQoLrizx9ngMmY5yb9vK2z2XlgJs0gQFtNYT1GBeZkqVCGaZzp5LML5wFkqfqqV9mIA67NkdXTr5hBhh69UnOt+1J07MthErfhPx7NQ0FBRc7VuhJAt543JRt+xXKF1Xi/rtFVhUUYWsa/OR57XngvKTUPzfO/Lt/Whv+8MvZXhC0Rxvm5q9A8sCcbORN0ZjcDSoKURME1eM2kOT2AaP6+8zROtmhMHff/f3hmCHJ+KRaj+JT/3aUtRc6KcJCCjFzZbNvAkZMBw5/bxbc2vQMd6L+o8434GawPH2vl6Dhn45GN5KAwZg0k+845h2ao5fthCL/evw8DxPgG2dmHbnsg53EJm6IAMZ3iFGXuid3/4abI4pau/Ktd4ZDMG4yRd1Tv1MTDXQwWimqRjipYvbu8/tvwV+YNN616HhpYdbXcMjnfBF9NFZzT3OtBRvWIT5LRS0Fksf8SzEFtuzMP3OOchdvwCRpk7wfMyPsUzzf+il8fLvSRJfNZbb6HHICzxL+SXJrFCPhoM4ONpzw6cVoWhqHnIG9UHda5UoK74OM/+9tQxGibrf7abuSTy5zLNCzynE1TFWZdbfP4DF1wNPeibPmP9Whg+/uQhLbhuIyP9ZCsycjcKGCGZfEx0FcMn4aShd29zllJDq1Z410dr6G3njTRjbrwHrng0v2rb3g3ogRoxG3hioh6mb97BfH7CsRhQZod2xtuXD2nDquJaivtdzcT2hyPlGoHAvb2LhH4DhF8TEF01H2hAM8Y5X/4E92l5sfqMB6RcM7+DIBIpX4BwHTMI4r/yGNza3Fp9keC8heg9DvueXN2JinGsWrS+yc1pc38Qkr9+mZz2LspXVORJFFFxPhFe3Ekfv/gpax6aesS+sI58u7p33LEBQVKdhqRW+HWuwdr3ndv8wRtKGDDSCGXX/A9CqDIqy96/uHX9fAkwMkaMCkg5LiiG9APc+sgj33jkf83++GMtXPY/lt+V6Vl8jqn5T0Rx6aC+92DffktqVlVjjzXOumoQ8b38LemUg77ZyPP+y14YvP4/yO/ORtmIhShuLMGdqLRYUl6AmqxjLX1yOOZfuQ9lP70DF+37eBGza6l2AuA9YHFHpZAackRG1fBL0LkfrNq5lSMBjQIZXr/31LUQnnaZYkAGedebZaOsejqRc/9j4orHyvLaZ6B2vWUQ869RzYTPO6JiExr40SLzziQ/PJzDEybfim18MiV4EnjB+OzUJTV6/TajZ6T2W8UZoxLXmPVrdXwOQcao3+yiVcz5y6PKOpfwSz1Uf7bnhv/EF7Z06I4QLrvSFsWma5TnRARjz5PZZwCIryk/TEk2B/PnRtE1WsR8CaDd9kPNPRbiai7trUBPXAs7CwHOiSwdjLdJDfhDgnIEBd53UYNUqSnIO8vJS8JUbKrHgl3Uouu1m5Kxfg8jufG+5EDn9c1B4WxHyvf1V69uyRq272k14lqF1F6PCEBQ8v25N+5qnlrHbKK1Fjb3mtKYZlojmS+o+GhFoQM3rfLSjFhzFwoirdZOra4xrnOMayugQzS54dIqJOXtEXwTN4YfEoYcOYix8EY9u6J33RGaQv0jOzfSEkB1AzdZqcCqfYexRLL0nGgrYmbQzKAF+zNTEW0czxhmwhtuDJ4xRKTwJfRIEIrPOjUr7tjdbPr3Vb24z8/zzY57EHVVYz0Hy5+RidArjPKsWL8SmcTdjupe29j12Up2O0/tH96G/t+zNPvywrVvetwg6m/4Z3oOcIp67WGwEwQqejcP6daPb2CQawall+CE+fozSS3/TGE9ankg2OD16TGN1+q68EUtfXOs9qz6x5X6Y4LvfUWvQNfQQB2Phi3h0g4jWYs8uf5EYt70Ka19IFGNMTO0LazvgUmdhuueiF3k5k4UBUFeL2hY9SAdRsziCVVy8eBhGWuGKIevy0eAzWPNUhRnqZPCsw4qnajyjIh+532p5O9ati55H2rjRyS3r10pRWjkSs38cHU+acdpp3v8f++NZPd7fh33enhbDoOJgXLW4Lnt7Y2mxREUnSLQTJBEUvKmejdecL3Hd2s+AycUmltqQZCxQtHOmHpt9Vz567lFx3bF1lbGOD/c/NjDnwHbz493jOrUX3GuLRPHMr/kfY3S5iFbOn4wFLWKgnit6ey6q7p+MkhY+tmd9zre98771+mhVsxvu9/THEo1/thzMX7ukpKXVWVmFiCdXmef664moiWDyFeNx3ay5KLlnNmZOGo8pD3AQvVf/uz1X2k9WWz4TY7IvwZR71kT/iuiiItw8zavH7grccc00zPbyTrvmDlTsTkPuP8xCUQtfvtHzFKPnMe6iJDfhoRqUPRBB5o/nIN83+dLGjUdB+gosuqcCNe/XoMLbXzmoEPkTo/sTMWDyD3wLsGXscNMjHL4yBFM7MvTGxsaeCJS5dxX+M8YN37vSexEFNc24yunI8F9KAyaP80TVq1tsj291JLlr7h0v0sLqjMbyWsVOYxmR4x2zHjW+K28xwvRRTbN12hZ+PDYaFugGzDnswNq1nhcS7yXoVD/vZXe9H4JpEcvehAiHMHmeg/OojSOU8EU02DvvTbN2cfiRP/TIJ2tGOXYuKkJkVnO67OzJqBvb3BsfjaXaoUbedA8wP15MNL8oGnM1MVbrste2jLma4U4t6xCXAVme690HdZUViJSvwJpPPBHMvxkL/3Mxpg/108QlDXlzH0H57QVe/bdhhZf3rWNHoqj0MSyeETs+dBu2GWHIwcBz2x6oVFu+AJG0YsyeGkiXXoC7yoqRtbkUU664EWXv5GD+g167xHZOtSLq8kaHNDXHHaPDilJxmeNhrcpAmRziYobWBKmP01ESjPP5cU1w2E0g3doMTEzhQa3nn0Q25bNjOZNZZSORk92AhlixpDDt97b3y/DOLhkjMXFMuhnGw2N3/d+3+8f36hvfKnSsnwnB+EOaYtq3M8a7HqkcdeDAgb/5y0KIIxzzxxNv5MQZeC/CohtiokKIcNiE1S91coeSSIpEVIgeQvNfKElCuxK580Ic4TT//kHrv0AT4SMRFUIIB+TOCyGEAxJRIYRwQCIqhBAOSESFEMIBiagQQjggERVCCAckokII4YBEVAghHJCICiGEAxJRIYRwQCIqhBAOSESFEMIBiagQQjhw9LHHHusvCiGEaC9H9+7dG8ccc4y/KoQQoj0Yd54iKotUCCHaz1F/8/CX8dVXX+HLL780kxBCiOS0EFELxfTQoUNmzilOEiGEEB5xRVQIIURqaIiTEEI4IBEVQggHJKJCCOGARFQIIRyQiAohhAMSUSGEcEAiKoQQDkhEhRDCAYmoEEI4IBEVQggHJKJCCOGARFQIIRyQiAohhAMSUSGEcEAiKoQQDkhEhRDCAYmoEEI4IBEVQggHJKJCCOGARFQIIRyQiAohhAMSUSGEcEAiKoQQDkhEhRDCAYmoEEI4IBEVQggHJKJCCOGARFQIIRyQiAohhAMSUSGEcEAiKoQQDkhEhRDCAYmoEEI4IBEVQggHJKJCCOGARFQIIRyQiAohhAMSUSGEcEAiKoQQDkhEhRDCAYmoEEI40KUiumzZMnzwwQdm+ZlnnjET4Tbu+/TTT826EEIcKXSZiFIoKZJWRA8cOGAmYvfZdSGEOFI46m8e/nJo7Nq1C5s3bzZC2bdvX5x44olGOO0yxZP7zjjjDGRlZWHQoEF+TiGEOLwJXUQpoC+99JIRzGRYd/473/mOEdRk1NTUYNOmTSbt2LFjccIJJ/h74vP555+buvzpT3/CyJEjkZOT4+8RQoiOEZqIWvecFiitzqKiIn9PYpiHsVGK4vDhw42V2pb4WhE95phjMGrUKJx33nn+nvi8/fbbePnll/HFF19IRIUQnUJoMdFnn33WdBxZt91CoaR1GpxsnNSm4zrzsoxknHTSSUhLS0NdXR2+/PJLf2truI9paK0ms1iFECJVQhNRWpKcggJKwaSlSZc6OFmxtTAP8+bm5vpb2qZfv3748MMP8dFHH/lbWsN9+/fvx1lnnYVevXr5W4UQwo1ed3n4y51Kenq6ccv37Nlj3OcLLrgADQ0NZt0KLDuRKJgU0P79+5s8dP85HzNmTAsBjkd9fb0RRpbz5z//2cQ8zzzzTBx11FF+iihfffUVtm3bBkYuzjnnHOzduxennnoqMjIy/BRRWL9XX30Vr7zyigkT0HKl4J5yyilNZf7lL3/B6tWrzXFpAW/cuBHr16/HG2+8gb/+9a847bTTcOjQIWzduhUbNmww+3l+tH5pNcfCPFu2bDHHZaiB5bz//vsmRHHyySf7qaIwfMGXDuvOc3/hhRdMiILlV1dXm2PHWtm0wNetW4cdO3ZgwIABplwhROcRmiVaVVXVYlxoEIqrneIJJWOpzMsyUoGxU5ZFYaGYxsJt3EehppB+8skn/p5m9u3bhz/+8Y/m2MOGDcPo0aNN3SiC27dv91M1QzGl2B5//PEmvkqhpXByeu2118zxWM7FF19s0lIkKbxBWK/nn38etbW1RtDZOcY8fOlQLCma8aDVTdFsbGw06zwv5uE5xMI0PA7TKIwhROcTmohS2DqK7aW382TQSqSbTqvrvffe87c2w202TTw+++wzYwFTiCdOnGis5sGDB+Ob3/wmzj33XBOGoJUahELGoVgUUKalANIKpohSpJmX2y+88EJcdNFFRpxpYVpYV1rHtESvuOKKpo4xiijrkJmZiTfffDPuS4gWMsu94YYbMHnyZGNh0mqlcFNMg/CYtMSZRgjR+YQaE506daoRplgoDLGdSkGYh3k51ClVaMlRKCgatPwsFGK67xQ4xk7jYfNQFHv37u1v9Rrn6KONmDFMYK0+C8sKCtNxxx1n3GlC4eW6hdvpygdfCozR0nJk2tNPP93fGoUuNwWYxLYPBZrufHZ2tqkfoYVJS5MW58cff2y2EQo087OutJSFEJ1PaCLKh5fWHS0wi7VOud12KtGVJUHL1Q6NosimihU8il1QeGiFsrxEViihlcl8K1euRCQSaTE999xzRkSD50FY3z59+vhrUSjAFMvY2Ce3W8Gz8HiMnVIQ48EyKI5MFzvqwIp1EAoxLc6gS2/Pi+0SfDkIITqP0ESUPe4UwqD1RQuT1iU7jYJT7OB65mFeTu2BQkKr69133zVuLS0xDqyn6CQSK0KRojt8+eWXGzc83hTrDsd2XgVpa5+F9aPFeeyxx/pbWsJ9tGYptMGhvFZcY+H58Tz5AuF5Ey6z/LbOXQjhRmgiat1xK45WTLlOtzk4xUvDvCyjPVAwaHEyXkkBoVXGzpxklhhFj0JFAaZ7HW/iiIHOhJapFfp4UNi5j+eUypAsnp916WmBHjx40LQD25KjCIQQ4RCaiLJnmw8wY6MUR/a2x7rKsRPTEA5ZssLaXiiYFA0OpeJE8UvWqcJ4Id3eYDwxbKywJRrbyvqw3diOsaGARLDNaL3y5cFyGT9lLFgIER6hiaiFsUO67FYUrbhauGyHOXHOtLROO4rtZKGA0q2nZRrs5IkH3V0K6VtvvdVq+BPjodze2bAjjNM777zTamgSLVQeky59W7HcWNh+fGnQAuX5U6gTdaYJITqH0EWUDzZFkRYp4TJddW7nxGUrmvwLJRcBtVB4OH6TIpLK0B4KjR2wz3GbHOfJQewcI7pq1apW4zs7Awok/3afoYQXX3zRDLTnMTnsiZ1ZHDHAoVHtEUHbucbzYCyYVmiimKsQonMIXUQttvfdWqGcB5cpqMEeehdoVdLKY7mpxgOHDh1qOpBYB/51D//Kh3FV/oUTB8yHAeuYl5fX9FdUPCb/Yol1mDBhgtneXmhVsy0p0rFDp4QQnU+X/J6o6Do43pVizF58DuBPNZ4qhOgYesJ6GLSe2TtPV14CKkT46CnrQXBIFDvTOF5UrrwQXYPc+R4A/7KLAspefv79/GWXXYazzz7b3yuECBNZoj0ACihHEnBcKeOgElAhug5ZokII4YAsUSGEcEAiKoQQDkhEhRDCAYmoEEI4IBEVQggHJKJCCOGARFQIIRyQiAohhAMSUSGEcEAiKoQQDkhEhRDCAYmoEEI4IBEVQggHJKJCCOGARFQIIRyQiAohhAMSUSGEcEAiKoQQDkhEhRDCAYmoEEI4IBEVQggHJKJCCOGARFQIIRyQiAohhAMSUSGEcOCov3n4y6FQU1ODTZs2+WvxGThwIMaMGYNjjjnG3xLFJW972LdvH7Zu3YpPPvkEY8eOxWmnnebvScwXX3yBXbt2Yc+ePdi/fz/++te/4thjj8XJJ5+M8847D0OGDPFTCiF6MqFboi4aHaa+f/nll3j33XexevVqVFZW4k9/+pO/Jzl79+7Fs88+i1deeQXvv/++EVDCeX19Pf785z+bdSFEzyd0S/Tll1/Gjh07cNxxx+HMM8801losJ5xwgrHcevfu7W+J4pI3EQcPHjTiR9G04mc56aSTklqitFo3bNiAjz/+2Kz369cPp59+Ok455RSz7aOPPjLLo0aNMvvbgnWhBUyrNjMz00zJoIDv3r3bWN4XXngh+vTpY7Y3NjbizTffxKFDh8y6hW121llnmToeddRR/lYhRGfRZSJ66qmn4oorrkDfvn39PclxyZuIv/zlL3jhhRfw4YcfGiE644wzjPjRlU8mop9++imqqqrwwQcf4Pjjj8ewYcNw/vnntxKnr776CkcfndzID4ooXwZDhw5tMyzBdNu3bzfnkEhEuZ1lEQoqz4v14Uvo7LPPNtuFEJ1HqO48H/rPP//cLFNoUhEWi0veZNA6u+CCC5Cfn4/LLrusSYiS8fbbbxsBJczPKZ5119668vg8V2vdJoL7Kby9evXyt7QmPT3dWOacKMoUWp4vLeRYy1sI4U6oIkqsocsHv73upEveRNBKmzBhAi699FIjOKmWS+uP8U9C65WdR50FQxG0IBlPTeQYcDv3U3CtpZkKTMuJ1mjITocQX0tCFVE+uDZGR2so1bglcckbBuwsspYiwwvtEbJkUEAZR6XrncgatSEHxmDbskRjoUVPC5Ti291tKERPpNddHv5yp8OHl8OAaMUxZrdt2zZs3rwZO3fuNB07tIzS0tLiur8uedsDRYYdNTwOhYZxw3gC+d5775nefDJo0CAjfBx+tXHjRrz66quora01Q50YV2W8NBX4kmBHFV8SAwYMMHFavjwo0rFwKBXryk4iHod52VlkhZFuPl32E0880Qiy3WbPjZZzqvUSQqRO6O58PD777DPjGrOThp087LBJFZe8LlDILRSltWvXGuE8cOCA2cY5Y6bPPfecEa72QvFjxxmPw/KD2BcJx6AmE0L23q9fv95M1dXVxnplfJR5hRCdT6giaq0ldsBwyM/IkSMxePDgFg80rcrXX3/djNsM4pI3bLZs2WLEnBbp6NGjTeeNtf64nftpLbYHxmZpjfK8Y/MyFkoLtX///v6WxHA4GF1+TqwT8/GPFqwVLYToXEJ15+keUxg4vIYuakZGhhkLmZ2dbdxwigUfcvZM86GnK2xxydse2uPO010mtAYp7BdddJE5NsWNfzll45asE8tgB1RbBN15DqtiiIBlsC4sl7FPuuQUQJbHtmAYg25/Inee5WRlZZk24zLrQGFnHta7M2O5QohucucpghxjacctUnRS/Ssfl7ydBeOSFM0gFKhzzz3XX4t2BLXXQqZoUvgoeg0NDWYb54wP8yXSkREKLJP15by91rEQIjndIqKEYhh0zdsT23TJ21GCApaoQ4vWsLWIaSl2ZEgRLVBaxLRQKZ7WgnSJadLCZf1ZJyFE59JtIhqLy/Cbrhi6EwwXhBmDta49XXp2EnFOK5RC2FEYsmDooz1Do4QQqdFtIkohsjFG0p6YpkvejsKB+exBJzw2rcRY6C4zJkpoPXZU+Gw8lKMQWAbXOwqtT8ZzKaIu5Qgh4hOqiHJso43tBaEI8m/A2btO2AkS2wnjkpd/b//EE0+YX2iyouaK7aghdLU5XjXorjMGaoc22R9M6Sjs/GHIgOWzh53ufaqwzXj+nN544w0zzInbWHe+CIQQnUuovfO0gOwPdnAcJSeOrXzttdeM4NA6oqXFcYyxv2DU0bwcT8k0nDNWSouOvfyJSLV3njFQWpcUUHb80Bpl3Wh9svecfwxgRf+cc84xf7eerCMotnc+COtNYWZ9uN/C826rd57nw/pxYqcb97MMtlG8OK4Qwo1Qf8Up2Y8qUxxycnLMFPuAdzQvxfOPf/xjU08093OMaSIonvZXnRgWSPZTeBRc1ouiHg8KKH/UhNaoEKLnE/o4UVpjtJ7ohlvrkS4qhwNdfvnlZqhQPIuto3mZj+8FDnuiGA4fPrxNdzhVS9TC49vhTbT+GBulhcqQwsUXX2zGjrKeQoivB6H/nqgQQvRkFCQTQggHJKJCCOGARFQIIRyQiAohhAMSUSGEcEAiKoQQDkhEhRDCAYmoEEI4IBEVQggHJKJCCOGARFQIIRyQiAohhAMSUSGEcEAiKoQQDkhERcrU19dj/fr1ZuKySA3+UPirr75q5ocjh3v9DndC+z1R/tjxSy+9ZL6VFIQ/aDxmzJgj5oeLX375ZfO9olj4WZJRo0b5a20TbAv+yj5/bZ/wx6b5HaS6ujrzKRDC7yCdf/755hfyg7zzzjvYunWr+UV9fhZkxIgR5geiLfwUCD+nwnyDBg3yt3YeFE3WgXXj958EzLXjteWnYNr64izFid/kys7Obnfb8Ye/ed15nCD8aGKy46aKS/1EF1iiFJuioiIzXXPNNebbPxSU2Juis+BnRdauXdsp5VPk+Mv19hf1+bE6O7XnJUDx5Jc7Y2HZ/OAef1E/KyvL/BI/v9NES2/Xrl1+Kpg0/G4Uf9F/4sSJ5tf8+QG64BdH+f0pfjKFv8wfBvx+Ez950tav/ouosHLqbPidsNGjR5vp0ksvNdtef/11I7LtIaz6fZ3pUneeDyCtMH66w1pehzM00vlBOIoHb97vfve7TRMtwVTg10b5lo/3zXd+VmTChAkYP368eTAokBdeeKF5AfCbTxZ+tM9aqBRaWpos17pf/J4UhZb7u+Ib/CLKBRdcYD4H09VtzuPR4+Anc+SCdz+KiaYALcWOWGC8yd98802zTCsyFlqUsQ9g3759zTz47SiKefA79qyLXbbH4Cea2/rAnuhZ8B7gy53fBhPdS+gxUT78wdgh3W1+Yvhb3/pWC2Gi5bVu3bqm78THi53GfgE0+HXO2PwkuJ/H5Fc9LdwWW4dY7JdASbK08WAslW44rUzGLFn3YEw0CC8DLUqm53H5IT7GPgnjsnTbcnNzjejyXOjKsX14voxV0lLuyBdGGetkKMBCizkY96SlQ5GmRW5JFI+z8Tu2bTCmy7DI9u3bzbWk9RbcFvxqKl3WYD5+QHDv3r3+Wvz9rN9ZZ53VdA627rF5E9U5Xt2IbReGWTIyMsw2m5blsx7BmCjDMMF2JCyTngXbxcYc6THQEwvub+tDisnalHWhl8JrxBe1rauF7cBng23H+yZIR+uX7J4h9trQa7LtRBgWC7ZzTyC0r33SQmIskBeCNznhxaRI8AucvCksvLirV682QnDFFVeYm5J5OTEvLxKFhR0w3/72t40rzTJ4kXgxaYWdfPLJ5uLwIeFEl5tiReFj+Ywh0nXmMZiX5fXr18/ULxG88PYm5A3LiTcZ68PjxX5pNAi/J0+hY4yS58My+FDzZg7e6Nz+zDPPYOPGjXjrrbdMvJWiG2wfPjCMkbKu/Dw0HxiKAr8wyu/d87z5ILUX3tysJ+tHseC36Xmst99+2zw4PAbnvAb2G/7f+MY3zDnE+4a9/Y4+2zzY6cV7gefJ/DyvoHDxC6k8Lh9Atrd9EFk3hnx4PIoDt/M6Mq8tm/v5EqEI8GHni5f1tdfM5u3fv7+JxfOaxdab63zBsSy2vRVZ5uc58+VmrwXXKSBsDx6HaXhuvJ58YfM8mIYvM54X70uWx/oxLduGeSk4rBOFl7FmHjdee5JEbcrjfPDBB+bYbBsKH48TvG+4zhcst7FtOqN+qdwzhO1Jo4Bl8NrYa8jnJ3gNewKhu/O0xiKRiJlWrlxpHsBg5wcfHF4AdkDZ7Xy4hg0bZm4Ma03wJqJFGxQ9vuV4kydzaXjj8KLxIbJQSJNZlqwb0/Cm4rF4g/AG2rBhg7mZEsEHmy8L3lTMm+gBIUzDG3zw4MFGCCkAtDx581qsENMSp+CyA4kPAduN58V6sTPtt7/9LZYvXx53NEEsfAHRCoy1IGjtsEx2hPFmDwMKAzvF+HBaWAc+kIR1YxvyvNk+hPtpmfNh50NvoYgxnxU/QsG0LwDCfbx+wTRB2O4sh8clPG8usx14D9h2oCCw7ZPdN4kIvkBZFwoVBTzZ/RsLz5+WI4Wb5dmy2Gb2HAiXeV6pvmCT1Y/lteee4UuT1m3wGrLOLCese6s7CF1Eg73znAgfdD4MhG8sXiTe5EF4o7LxKYBBaI0ERZlik+wmZJyRVi2t0fZA0aUbf9lllxnX+corr2zqUKJVzIc1FooDj8MbnULHm6YtuJ8uPi1kls85H4bNmzc39b7T4uWNO2XKFFx33XXGrWcavun5hqdgk+985zs477zzjPsXdGXj0ZYgUNw68nCnCh8uHptWUvCht7ButJZiH37WlaIQFFG+oOxDamEIiS9gvpBSgeUG44ucU+jZDrwGdjuvN1/iicS4LVjP2POx9Q6eTyJ4Pe0YXd5ftC6DbjEFisdg21n4bPD+CgpeIlKpX3vvGbZpbFpeG7ZpMDx0pBO6iMZixzfaITxsdF5sCqIVR06PP/54k9ASLlN8aY1xqBQFefLkyUlFitCiYVreiFZ8gxc7VShmFCmKK/MH43kWvo0p9Hw5VFZWNp2PjeVyznWmiQfdKZZPcYknMIQ3IV161sVaUHzjMzzBOduEbmdbxHsBdBUUIfZqs568nhSGoOCxbmxbhjiscHCKjTkSPtQU5SC0jOhqWuHZsmVLm5YP60OhsRZSUMRZPtcpJKxT0HruSmgl8gVrp2B8lFDwaH3bcwijvt15zxzOdLmI8k3Ot5GFbypeaIpc0GK1E+OadKkY++ONxHTx3oTJ4Jubltz1119vjk+3OCjSqULRYgiBD27sw0v4QPJ8Yicr9pxzPZE1Q4sgXrlBaMExHcMAvLFZJz7shOVymVZBWwSvQWdhLcxUoSVFQbCCZ0MkrBsFgbHhoHBwoleQimVFt5Tp+dLmSyfZmEreU2wz+/Ky14jHYhtzG0nl2N0FY5zWcg6jvmHcMz2BLhdRCmLwjcablxYeY43thXno1rYHijgfRL65k1mjrCdvSgvFkxYTb1A+5Jxi4Y0cHE9qJ1qIhHOuMx2FIzZcwbAD3XTe/PEeAFq4rAPde54LRYuCai0tzllnO1QqEVY04rUBPYN4rliqxFosPEZbok7B4wvSxh/bqlt74XW2bd+WiLKt2Y4MA9DVtG3PutCi4/ZgnPVwhHXl/UDjgB4RDYfOrG+Y98yRTJeLKOM5vCFtDJSNTnebbm7QxeUDxbgg59Z6pbjYC8gbhcH1WCgeLJ9iY2FHS2xogA9UsgtOl3jFihVmmBM7e/7whz+Y+jMfO76s1UUL6ne/+505B1qFqUI3cdWqVab8V155xbj//BtmWnRsn1irjmXTjWevvB3+ZDuWuJ3twzahiLJToC0oXLSKmc9aLYQCzRcT3cVE1nIirOXG9rfhBIoiywzGwNj2wb/IYhrWwcYb6UbzgeS5BIWPaRiLTgbLDuZjO5O2BIX72I48Bo9t0/J8eD24ndZpMnifUnTbEuywsO3P8+U9EBvjJC71C+Oe6QmEPsSJPcgUQztRgDjUyLq3hBeHYkAxsenovtPaYpyPUDT4dmXPOPfzJmAPOwWRVozteWf5fIApaDw238a8wC+++GJT2RQbO360LSjgVhBo9dJSYU/wJZdc0iIv68D9vGkpXvGGPrEMWp7BHlCKBq025uc+wv20lOOJINuTbcChO8xLeNOy7fhXTexQYrtwP4U2GTwHChjbieLEifkZr4y1sllHXlPWne2QCNaF1jXPh+VxGA4fLlowFCMek4LKFyYnpuGwFx7PdpSwfNafDypDF7ZuvBaMA9sHlS9K1je2TjxmMB/TJBuPSehp8DoxLm3Pn8ficVkG6xQsI16bUKR4L/B6sB4UXp4v7zkuB/OzTFpw9kUYD+ZlebyvmS4Z9vh8AdPbib1WrvVL9Z5JdG24nYYQn+eeIrihDbYXQnQ9FC6+TOnd2Ze1CJfEJoUQ4oiDngqxMV0RPhJRIXoItEIZYqDLnSx0IToPufNCHOFYF54xfMbUY8eQinCRiAohhANy54UQwgGJqBBCOCARFUIIBySiQgjhgERUCCE6DPD/AZDBJ1yfUFXuAAAAAElFTkSuQmCC;" vertex="1" parent="1">
          <mxGeometry x="550.42" y="258" width="196.58" height="167.41" as="geometry" />
        </mxCell>
        <mxCell id="9oymTsqKh7B6sWfHl0c2-7" value="" style="shape=image;verticalLabelPosition=bottom;labelBackgroundColor=default;verticalAlign=top;aspect=fixed;imageAspect=0;image=data:image/png,iVBORw0KGgoAAAANSUhEUgAAAVEAAAEzCAYAAACISjATAAAAAXNSR0IArs4c6QAAAARnQU1BAACxjwv8YQUAAAAJcEhZcwAADsMAAA7DAcdvqGQAADh1SURBVHhe7Z0LeBXVuf5fBAG5RC5GDZdjJBAlBJSLSoKVaNtAlSgt9Vg5gbYH0SOUPkU8p0itAdtS7F+gjxR9vHCsmFIt0uKhVohYQ1sIKBcFDBIIBolEjYBcFRT9z7v2rGQy2TvZyewdQd7f80z27LmuPdnzm299a+2ZZkePHv0CQgghGsVZ7qsQQohGIIkKIUQAJFEhhAiAJCqEEAGQRIUQIgCSqBBCBEASFUKIAEiiQggRAElUCCECIIkKIUQA4vqzz/Lycvz5z382A8e7detmpl911VX4zne+Y16FEOJ0Ji4SpTCnTp2KtWvXmvdWnny10wjf5+fnV80XQojTjZhX59etW4esrCwjy8GDB+MPf/gDCgsLzUBh7ty504xzHmWbm5tr1vnqUYr8OzIx8MYZKDzkThJCfOWIqUQpxf/4j/8w4z/+8Y+NNG2VfcmSJXjooYfMuI1AuQzX+elPf2pe66cAM3r1Qi/fMPDaf8fE2ctQetxdTAghmoiYVucZVTICZfTpz3cyOiWMQr1QrpQoI1OKtW4o0YnIvzwbuf3Od6cdxwebClGwpRIJvSfgd3+ZjIzm7qwm4NDqBZj+5GKc++/LkZftThRCnDHELBJlldxW4RvSYDRq1CizDteNulqfdhPyfp7nDjMx/8+v4PkpGcC2h/G/f4gmoo0dldtWYdmqUvedEOJMI2YSZQs8mTVrlnltCHYdu42G0wpp43MxzBkrLC0OTRJCiCYgppEoaUxLu10nUAOTU4Vv5Y5W4+ZQ8wrc917CzSvFgjHOtDELUHqyHAWzJ+KmzFDeNXPYeMx40RPllizAWGf68AeKzNv8iaHlevWa4WyZuNuqek882z9ejMX3jsW1V3KZTNz03/koNjndQ9i0cBrGXjvQbG/gtWNr7tdLZRHy7x2P4W4ZmRu+64kiVJ505wsh4k7MJMqGIVbL6yNSA1I069ZJ+Qfglru1bR96H4hDKLx/IuaXnI8bp8zBzJ/ejJ6HC5H/49swa7W7yIVZ+M+5c5B3S5p5m/VfczDHeT9n7o0ITamLcuTfMRHLMBQT7svDhOsSUb50BsbcuxhFT/wIt/2hEv3HT8ecGRMwoKUjSu9+LQeci0DuWMxdfRwD/nOms988jBvUGmsfGIsx9xc4n0AI0RTEtHW+Lti5ngJl45NtpffCedG10IfhZCUKHs9HYccM5I7McCcGYO3DWIyJePpRR0yjcnDzbTOx8OEJ6O9EkouXLgsJKiEFWSNykJF8rlmlW98c5Djvc0b0R72x+Np8lA6ej4W/HIebR+Ri8qNPY/rIBBxa6kSgj52H6c88jsmjnW2NnozHH3D3W+CNmB0J33sP8s+fjKeXL8TM22529puLCf9vIZ6YkoHSRb/Gw37pCiHiQswkykiyLgmyO9MDDzxgxilRtsh74bpRpwKKn8eMX8xwh7sw9hvDMfGl8x2J/A7jUt1lApGDiVOykeC+M1yehYzeToxavsdEvMFwxDzaG68mYOiQoWYsbfQY5HQ0oyHsfnftcVTqsuX/8H+OU3PHTECaL4eRNjIb2U4JN25RbliIpiBmEu3atasRYV15TbbE2/6h7NpkpWvXibpV//UC5C/Md4dl2HPROCxcuRCTh9bQXuMZ1BMptTaVgAQGnesrg0s0zPYT2oQi2j6X9Dev1bj79VC55U1scuLh6jysZ/haKAe7qSK46oUQ9RMzibK6TubNm2deI8FokxLlL5ds5GnXsduol9HzsWPHDux4ayuWz7oZCcVz8aMJC1AcqwaVFq3CNFLFkDq23yqKPq6Hjh12/qbh5p/bPGyYIaf+zKwQIjgxkyijSNvfk1FmtHDZxvQvNTRvhZRRMzHnzgxg9cOY9eSZUYUNibYcrbrZPGyYYVDDe0kIIRpOTBuW2N+T0SUjy3CNR37sr5XIpEmTzGtjSPlhHiYMAYoem4UF29yJhvZodZHzsjtMHrPEk2MMQDSRY6zplpqGbk51fuPmTe4UIcSXRUwlSoHan25SovypZ7gcKXOhbKWnQLlOuJ+JNowUjPvpOGQcKMLDDyzwyLEP+jDFuHoV/q+GXA+hYGE+Qj08g9Gta4p5PXisCTsVDR6KYT2A4kVzfRcNB/ZUeHJxDBq/hBDREFOJEitS21rPG5JQphwozp49e1bd5ckuG0ygLr0nYPLE/jjkVOtnPGk1moCh38p1FFuEuePGYtoTi7FsyQJMGzMcc5pnISY/dU9LQZbzsuyRe/DwkmXI/8XDqHl3gDjQPAMTpuQizflcs75/E8b/YgEW/9XZ93y3p8LfD0H3YhGiaYi5RImVI282whZ5vqdQrTjZsGRvkcf3saL/pMkY1+MQih6Zg3w3FEu4Lg9PPJSLrPY7sfiBabhr9mJUpk7HE/dlwN7CJBDdcpHnbD/jxFrMnXoXHnZq2HFtlHJJyM7Dn56Zg9x+wM5lszBt8l2Y+1wpWg2ZjIVzxjkXDiFEUxDXO9sLIcRXnbhEokIIcaYgiQohRAAkUSGECIAkKoQQAZBEhRAiAJKoEEIEQBIVQogASKJCCBEASVQIIQIgiQohRAAkUSGECIAkKoQQAZBEhRAiAJKoEEIEQBIVQogASKJCCBEASVQIIQIgiQohRAAkUSGECIAkKoQQAZBEhRAiAJKoEEIEQBIVQogASKJCCBEASVQIIQIgiQohRAAkUSGECIAkKoQQAZBEhRAiAJKoEEIEoNnRo0e/cMdjxvFdBcj/w/NY9Vox3txWjkPOtIRuaeiTloWc/8rFzX0TQwvWogAzek1EvvsuErnzdyAv230jhBBfIjGORMtR8IuxuHbYRMxaWIAiV6DkUHkxigoexrTv3ITxTxa7U32cdATsjgohxOlAjCNRTySZmIbs6wbg/FZ8cxClLy5DUSXHSX9M/vOfMKGv+9ZSsgBjb5iFIo5fno3cfuebyX7SRuY50az7RgghvkRiL9Er5+Pg7VNxzw8zkNjcnUyOF+Ph227C3LWht93GL8Qr/5MRemPxSLT/lOfxp/9KC00XQohTlBhX51Nw84I/Yc5tPoGSVmnIHZXjvnEq/sXFTuXfR3k53nRHW7cwIawQQpzSxFyiaX0jyy+hzbnumEO4/OdnqMqhtm+T4I4JIcSpS1xa5yNxaOldGPjfy0JvbpmPHb+s2cTunR+TFvhN+bjvLyVI/fb9GNniBTz94jpUHHGmt+yIfjeNx3f7tgM+3IjnlqzE5nc5A2h30RCMvGUYUp1ZXiq3vIClL72BPR99Yt63aJOI1G/l4nuXdTTvhRBnJk3YT7QUi5e4AnXIGTTYHaum8sMP3TEgf2Iv9OoVGjKH3YTx9y5Awa7Gtd1/XJyPh17YhcRBN2BYZio6fnYAmxc/jOe3bET+Y0uxq/VlGDZiGIaktMOR3auRv3AVDrjrkoqCeZi3eB0qW/bAkOwbcEPWVUhqWYmKipBQhRBnLk0UiR7Cpt/+CLfNLwpV13uMw8K/TUWGL29a+sRYDH/AtM1HIAXZM+Zg/ugoG5zcSBSO/Eb+5AcYYKPL0ufxm6c2gLFnu0E/wP/c2CM03ZmyesFvsGJ3Rwy5czKGJXHaLjw/6/fY0PIq3HnXDTCTDJ/hyKHP0C6htfteCHEm0gSR6CEU/ua2aoF27I/JD9QWKDnePgW5Y3ORO34qZs7Nw2RnPGdoCqq75peiIO8uzFrtvo2S1v2uqRYoSemLS9pwpLsTWVqBknYY2Lu783oAle+FplRx4mMc/twdN7SQQIUQcZbo8WLk//jfMf7xTa5A05D7yycw4XIztxZpt+Qh7+fO8D/jcPOIXExwxuc8sRxrVs5BTpXrSrFgUT6qupxGQZeuXlGSc9Ca/uvQBT18Hmx9zjnumKUHrrzc0fixzcj/bT5WvFGBT2rIVAhxJhM/ie5ehmk3j8GMF0tD7xOzMHXBn5CX3YhW94tyMOeBCejvvkVBKTa5o9HQItKnPKuFO1I3ScPvxKQRaeh4rASrlzyCmffPRf7fS0w6QAhxZhMfiW5bgPG33oXF20IdlhKvm4yFzz+OcXV0f6qXy/ugjzvKaHRPiTvaJLRA4pXfw+R778OkUUOQmnAAJYX5eGhxhJ+vCiHOGGIvUUegY78/C4Wmvp2AtLHz8fzDE5AR6Z4jjaI9Wn0p3UgdmV42DLk/uRNXdQI+eXMjNrtzhBBnJjGWaCkWPPAwikz/oARkTHwCT/88u/avlxrDqo0odEdxUXekXOiOx50jOGJ/AWA5qyM6tHdeW7R2tCqEOJOJrURXLUb+atc4gycg7yf9HZVGSxEWP1GEypPuWw/Hdy3GXTMXVP1MtP+3b4TvV/dxpARLH7wPv3n0Gaz41zqse/VlvPD4Q1ixG0gcNAT6db8QZzYx7Sda9JtrMfZxV3V13IUpRCKGjp+ArKqI0r0DlLn7UwYG9O+DhANvYtOmIhQWFFe3xvfIxfxn8pAdzQ+FPL9Yyq1qlSIVWPHbR7AaQ3DnT4Z5+n461FrnADYueQartlfggNu3vnWHJKRe/V2MvDJRkagQZzgxlWhBXi9MXOS+qZcMTH1hIcalum+juCFzQu+bMX3eTORc5E4QQogvmfi0zjeKwbh51mTkDE1DircRKjEFaUNzMHnucqz5iwQqhDi1aNIbkAghxFeNUygSFUKI0w9JVAghAiCJCiFEACRRIYQIgCQqhBABkESFECIAkqgQQgRAEhVCiABIokIIEQBJVAghAvClSnTjgY3umBBCnJ40qURf2PtCDXH+aP3EGu8XlD7hjgkhxOlBk0r09QOb8Kutv3Tf1YRC/dvev7nvhBDi9KBJJfqfPcaZV3/EWfFxhYlIf5Z+rztFCCFOD5r8VngUJkk6J8mIc0DHATWmCVE37lMJ9jujncI8mUBEZOPT92EpRuL+MQPcKSIWxF2irKb379gf41Juc6fEiIIZ6DWx9n3wc+fvQF62++Y0YG/ZbPxu9wqsP3EYR9ASyW2G4QfpdyP73JbuEg4f/R6TXnsUG9y31aRi0hVP4dYO7ttaFGL2S/dgifvOy6jUIkzx3OB6X8UiPLZrEdYc24d9aI/0tsMwOn0KsrwPyfp4Pf64+ddYdGgv9jXrguwu9+DutEFo584mR0qn4Dt7kjHnmklIj3k9xxVoZ4mgiooVmPvIaiTWegRObWIl0Yrlc/HIGvM0Sg8dMeTOyRh2Bl7RYv81d6JKVtf5aqvpC3YtiFOjER8xsgM7doSG5T/NQP7EXphR4M6OOXyESey2v7dkEn6w4zkUnmiPfh1ykNP2PBw+tgzTXx2PP+5zFyKO2Eys3qwzUs/u4hnOQ8tmZonwHKUQSXvfel3Q0vNwqCO78zBp6zwsO3YYndtmIsvxd9nR5zBtfR4KP3YXwl4s2TQJ8z5Ox6T+f8Rj3VNR8u4kPLjrsDvf4eMCzCvbjpzUeAjUoWIzip0INDVdAq0TivW+uVgRquDFDrPd+/DIW2m48/77cb9nGNnLXeYMJOZfdStNRqBkydV/Nq+RRMrlfvVmzcYmLjfqn9+p0XIfDSm35WHqYCB/ddwsGkPKsOqD9U702R45vX6PB6+Yhnsyl+DXFyQ780rwZFnVA6KBTw85CnM49278PmuJZ5iNUeeaJcLz6WEYxbUejek11luCSV3NEg5r8OTOAqc0nZ3o9K/4feZszBxagN91TUW7k87rW2tCix0sQOFRJ4K9eAayz0tG+iV3IKe1c1nZVx0fb9j+ELZ0uBs/7OJOEPEnaRgmOxKrLwoNzkbkOxEvMu/E/WFSKAPGnJlRKIm5RJnjNHnOTyrqFant8uTv+sTluP6m/V/xfqQmkdIZXdrzIfYh0hMo0fAMbBt5Xp20TkbENT8qQcnnzmtLJxK+qLocqSnfRabzund/USiNYMqaii5V0k5GkiPRKj6Yh0f39cXtaVk1qvfiq8HGp5eipNMQfG+4MtB+YipRU4V35PezPvdGLVI/tpGpcZSifK1Tye+e4r6vhk8i7eVUxe1Qu0oeqqp7l+mVV71QaP3Q00iZMqg5vxQLxrjT3GHsE6XuvEgkI+M8J9pzYsAVuwqwj8/bP7Yej5UzAu2MnKQssxQpO1rmjjWQg2+HyaNGSav2Tozs8PlmlBw0Uxwq8KETjYYoc/6/QDt+gz4vwVPbF6FL8jRknROa2zCY67wP9zlVxarh6ZoXUObz7nMiIWbiSv4SWiZ/U2ieH+bs7rsv34mdfPBx2P5qrpnm2W+t9ZwILIr5LIspI5epKrt/3chlDls2e1x+uyKUzrGYZd1yuFXs0Hbd5c1xOoDVj4T2OXe575xy17FlqjW/FhtRvMO5hA5VI144YirR/3UEyX6gf3Miy/pEyir8i2H6hXLdxlKQ50hu8FTk3eaVaEhwE3dNxXI3d7pjfm6t3GnpE44e51fnV3e8MBUZiyZWyTB7BqfPR64zzsYrs8wMtmBx+8Mxq8f8GuvW1nhtkns/jseSnXjvozzk/D0Dmasn4fcfJ+PWPn/EpDBV4g3v3orMl5zlVo7A3a8twoZj7oz6+Oie0HovZeP2NbNRcPCEO8PhnM6Osh1OFKLwverpR3a/Ui1gRqEdspDZ+jCWvT0PGw7uQ8nOR7Hsk5Dsy7b/Cs81vxu3p1RHslFjTmi3sagqxzYSqTuW1pDHgDHO9DuHoKMznvrt0HKBq7CU0V8qMeROu19fbs+UbSkqWYWtml+CpWEEXblqLorT3e2YhhsKtOa693+76vngtemf5sT5B1D8hldoFahkL4T9xdjsmbxxawnQKw21M8NJGPYTZz/mOLGhJ7Tfyd7okcf1WeB7njIdWPNIZLmTTcUocbaXeKH7XtQgphK9vGN/I012mg8nUkrW4q/CWzYdqOu/6acIs26ojv4mLsrA1J+PqymwgnzMWuubnp2H+aOdiPLpBY4CQ6TctrBmq37qOOQ6yxTtqS+iDEW/uUM8Kzvr1hR5eI7sfhDTy9agrFkqsjvnYFSHdOdEKsMf35qGJZ6GpSNOdTszwZnfORtZrZ3q/xf7sOajeZi0diaKjrsLheGIE90ObJvtrJeD7DZdkNzsMLYefS7UcPWRu1CrHHzX5GHL8Pst38To1VMwffUI3FpShBM1vh2O3Af+Gt/FMtzz6gj8aPdeDOz1GCa1X4LH3gVGp+XgyPYp+MFKyjoD3/3XbBRVNUpFZuNKJ2rq5W8xHoBcimD/arzckK9DA6l4vxLolIZ+HscMGJNbJSdTNl8VdsAYR/COUlb5orcDnYfWlHpFJSod8aRd5tl4/9w6xD8AaY7AD7y1uTrqpLw6pSK10wFUvudOs1FhoxvXUjHSm9Ps/3UM6eRE91trn4siOmIq0Ru63IBxPcZFFCnFGVtqts7veGEoVlGq3mr4aifCHJ2Lcb4gIKV7BrC2vEqiIWpWyycucibt2uNbxk8KurExa+JYLHAChKg5vgwPlixzTsdBmHLVU5g+YBqmXPE4ftcrC11OrsfstxaFGpMc0tOfwoNXOfMHzMDMr/0Vzw2ZgVHNnRknl2HZbm8zfk3a9ZiBeZkznPWmYfqQJVh07VO4w1S3S7DEkbclvd9jeKxrJtLPOoGyY2uw4dNLMLrvNGSbb0cCWp5tFgPaZOH2qwtQ8M0iFHz9KUxJbo+CNx/E4aSfIefgrzDtne1ITn4Ky/rfjfQTzyHv9SVu74BI1CGEpH5Ii/PJnXRBohPlrcYjvtRBiEhV2CQkOuU6UFlToh0Tay6FpEQkmip1mLRCBAakO1/S/ZVVEmXE2fHSryPNqSpUHQdXzo2OCmtFsM7nYVVkX/V+RcOIqUQpSfYH9Yu0yTrROxHgQqeqjkX5rtBKsWeX8+JUy60Y7TD8gSIuUEUo5zkcq4Yur5Iyo9X6ScG4p7lsdVRcfz7UoXILjMbaZ2OYpxbcLnmYc2lwOFaEoqr8o482TnR5YeiqUHhwi3mNiuap+H73UMS893CJE3ta2iM9bTYe+3oR1jiCXJY1G7d2PIy9nzmzzkpGctvQUn6OlM3EY5+Mxh29U7H+/QLsbftDTOqZis7njcKkboNw5Igj5Doi5ZAQvkScyNBUfVnFNflBj/Dcstn8a/XgdvT3kXiB/zvuRNP33+lEeaz+h9ats8pMTJW+BMVmOUo8FMkaue4oNmWreKPYiY5rRs9x58JER9veaFh4iZlEKVDmOdk1yStS5j9jH4HWQXK3kIQMKejew3kZ7clX1hjyYJRSMCOUCnCi2oVRVMPDEcqZOoMj8aIHhteIhsNy8jiOuKPhOYQTlFgETnwRyl92ObuleY0adz00dxuOInCkvNBIvkunDAwMTarJ52vw5K4tyOj5AyeCLUMFZXm2m1916NzKCdfwIfbVVaU30VrsMRFmtLhdhO6vEp7buOOWzeZfaw1RdVh3c5TO8ndmdjRCrrsRJxTlmqjTVOVdWRq5OlKvqMDmtw440Wk/X3QcZ5qgVnA6EzOJssqe1DrJiNOKlNOixS7rzZNe2JgItqwc3hjTVNsXOdVP9330FKCI1fmGkp1nOv3XmwY4rx9M+/vhAqw4ZKYYjpStCJW/eT+kmu5ETkR40FcpPlaAZe+H4sj0hL7mNRx7D5bB04TkiLsET5nWf2e99pdUCe/IsX01lzu0DA/uXuNIPhWjLmZHp9ps3ToPq9r9GHd0o4odebLKf5K/ugqx7zjDtWQkeX/xVAuPNPwE7lhP6bijLqZBJiIUHvOdNuKqo2yNIGn4ZNNo5U8D1CQJ/S7taKrWK0xV3sqSZWGj02ZU7vflWZsE59gMZTS8tP5o+gwkZhJllf13g+bXEGm0neWZSyX+5e30qClZgLH8KagnB5pyWy5ykY+JY6obkQxO9FnVOm+i1yKs+kf1Eqal3x2vxs1/1ujMX4AZNaLOUhSucjTYo3t1Q1Y42o7CD9ihHesx+9VRmPbaTMxe933cuqMQex0pjUq53Y0A92HV5hHI+ft4TN84E79ecyu+uzoPS046xe7wa9zdw40njxdi9itsuR+PJW6jUUnJrRjx8q3utsdj9Cvfx6NOZNjunDtwd5/00EIOH5bd5Sw3Anevm2kalXKc14KTLZHZ7Wfhf1K671E8+n4X3N432+0T2h6ZiZlod/hRPLizBPs+XIJ55euRnDgMWXV+w5yT8xa3Ol0jLxnq2M0Gp0a1wLst3auf9XQN2pSPpTvccZeK5fm+7k7eVuhqcfijx41PR5HnrFiB/BrrhXKstXKnPpIuS0PH/cUo3ueVZUiuB94qRmU0VXk3H1uzpT8g/XPriKbZtSoOv5A6TYj5b+fZz5Mt8RRptLDqz8jVpgQIBcpGqYg06Lfzbjekte5bMngqlj/tabH3bY/byVjtdo2KtBzTBDOAGW7/0SrM9FqFCMMJlL09D4+94/3tfBZG9fgxRiXZOHEfijZNxaP7t4Y6xTt0aZGOgV3uwO29BqGzlRQluuYeR67pmDLocYxy5FeyfRLmvbsZG06G4szOzZPRt/MPcXt6NpLZMOWyb48j552F2PxZpDJ4KcMf//V9bDn/j5iZ6u2HdRhbt0zDzPfXo+yL9k6E7Ij6ilFIjeoyHeoO5I0TO2beWbNrDmGXoyh/J26XrfqFN3sApBe7XZpCv66p/RvwML//9m/HoWbZQmWHv0z1rhcJ9/4A8N1cxW7P35MhwjHxfja730i/nTfT90V7M5fa/yvDGXwzmLjcgKQhImU1nhEs4TqMRhnN8rZ4DUkHCCHEl0HMqvNevFX7uuB8K1D+islW5yVQIcTpQlxvhceIlF2c2ELvhfK8vsv1VbfHozz5SydO698p9Nt7IYQ4HWiymzLb39UTvyQpUYlTCHE60mQSFUKIryJxyYkKIcSZgiQqhBABkESFECIAkqgQQgRAEhVCiABIokIIEQBJVAghAiCJCiFEACRRIYQIgCQqhBABkESFECIAkqgQQgRAEhVCiABIokIIEQBJVAghAiCJCiFEAM5q0aKFOyqEEKKhNPvC4fPPP8fJkyfBVw7OJHe2EEKIujASdceFEEI0EOVEhRAiAJKoEEIEQBIVQogASKJCCBEASVQIIQIgiQohRAAkUSGECIAkKoQQAZBEhRAiAJKoEEIEQBIVQogASKJCCBEASVQIIQIgiQohRAAkUSGECIAkKoQQAZBEhRAiAJKoEEIEQBIVQogASKJCCBEASVQIIQIgiQohRAAkUSGECIAkKoQQAZBEhRAiAJKoEEIEQBIVQogASKJCCBEASVQIIQIgiQohRAAkUSGECIAkKoQQAZBEhRAiAJKoEEIEQBIVQogASKJCCBEASVQIIQIgiQohRAAkUSGECIAkKoQQAZBEhRAiAHGV6NKlS/H++++b8ZdeeskMhNM478iRI+a9EEKcrsRNohQlJWklevToUTMQO8++F0KI05VmXzi44zFj165d2Lx5sxFlu3bt0LZtWyNOO055ct4FF1yAlJQU9OjRw11TCCFOL2IuUQp0zZo1Rpj1Yavz3/zmN41Q6+PYsWP4xz/+gQ8//BBXXHEFLrnkEndOZFie1157Deeeey6uueYatGnTxp0jhBDBiZlEbfWcESijztzcXHdOZLgOc6MUaL9+/UyUWpd8vRLt2rUrhgwZgpYtW7pza3PixAmsXr0a7777Ls477zxJVAgRc2KWE125cqVpOLLVdgtFyWjQO9g8qV2O77kutxENlO5HH32EDz74wJ0SHs4/dOiQiUKFECIexEyijCQ5eAVKYTLSZPXeO1jZWrgO183IyHCn1E2rVq3MOuXl5fj888/dqTXhdM5PSEhAp06d3KlCCBFbmk93cMcD0bFjRxMh7tmzB59++ikuvfRSHDhwwLy3gmUjEuVHgV544YVmHVb/+ZqZmVlDwOHgdnfv3o327dubdd555x107tw57HqMQrdt22Yarbjexx9/jIsuughnn322uwTw2WefYceOHXj11Vexbt06M87ItUOHDjXSBMXFxUb+lPHevXtRVFRk1uHnoKRtwxmncdi+fTuOHz9uUgjNmzd3t1LNe++9h/Xr12PDhg3YuHEj3n77bZOq4H695eO0l19+Gfv37zefl7ldloOfhfs5fPiwSWv44cWjoKDA7JtlEELEj5hFohSLt1+oF8rVDuGEx1wq1+U2ooXyaNGihcl3hoPTW7dubSRC6fhhpPr6669j69atZhnmVyl5ypeioqD87Ny501wUeIFIS0szqQqKjRE3hUgJssErMTERb775ptm2F+6T01atWmUk26dPH3PxOP/88822//nPf4bdL9d74403zH54QTjnnHNMmSnXcN3E+Bko9qSkJHeKECJexEyiPGkbi22lt6/RQGFRVpQ2o0cvfG+jXUat4aC0GFVeffXVuPLKK3HxxRfj8ssvx+DBg410GZV6odwoMC7fs2dPDBgwAJdddpmZTpFSrJzGyJfb69KliymDV3KMQBmlUtbskcB1uDzTGBy4LOXrT1Ewoue0G2+80TTYpaenG/EePHgQ+/btc5cKwW1QoozQGSULIeJLTHOiI0eONNGmH8rE36jkhetwXYolWs466ywjvk8++QQVFRXu1BCszrKqzup7s2bN3KnVsNWekSol6y8vq+wUEEXM5bx07969RjWf0SAlTZl7q9U2Ama0aaNgSpDpB/YOSE1NNeX3wvUZOTK69F9M+Fl69+5dQ4pclu8pZi8UKEVKiQsh4k/MJEo5Mr/pjbxsdMrptlGptLTUTPNGrlyHy1CyDYGyo6wYUVrhMY9IQVJsjFbDwf1xKCkpQX5+fo3hmWeeQVlZmZEz5WWhLP1RLdMJlCE/Cxu7vHCeFwqVUSu3Ea6bFbfD8rL8folSlv59My3CPKm3Sk9R8//ACwEjVSFE/ImZRNniThF6BcAoj9El837ewd+5nutwXQ4NgaLq1q2bEYmNRikRRpGc7o/2LCdPnjRDr169TPU83MAqs78PariolkSa7oXdcblPbtMvWAvl6pc3YQ7U2+BE+Nn4GSlQRp+Ex5HHgheWuvrPCiFiR8wkaqvjVo5WpnzPvJ93CLcM1+U2Ggqr5OwHyqoyBcSqfH2RGKXHgSJKTk4OO1BQkWTXWLhPRsx+SVoYrVKk0QrQ5j154WAUyh8hUNThWuyFEPEhZhJl9ZIyZG6UcmRru7+q7B+4DGFDixVrQ2GUxlwlBcJ0ACMx5kLrEhFFxfVYvaa4mgKWh9V+7pNVdj+UIBuJWK5w1f1wcFleRNjwxEYmpjUYhUZKYwghYk/MJGqhKFhlt1K0crVw3HZz4iuXZXQaBDaysDGH/TkpIIqlLigfyqaysrIqR+uF0SzFFEsY1VL2NhdLaXphHpcpCZa9Ia3qjLgZ3TIS56+4uH6kNIYQIvbE/GyjGClFRqSE46yqczoHjltpsltPUIESSodyZnWeEokmkmM3JVaHt2zZYn6Pzy5PlBs7t7MDPKvFsYYSZY8Cips55LfeestEz2vXrjWd51ke9h1tCFyH6Qs2hrFxq7ERvRCiccQtZLGt7/ak5qt3nEL1ttAHhXlARpfR5gPZ2s0bkrC7EaNOioxC5a982M+T24o1jBDZl/Sqq64y+7G9FpiCYEMWo/KGNggxwuWFg2kCCjXaVIAQIjbE5X6iomlhB36mMrxpFCFE06Dk2WkO86FsUGKVnoMQommRRE9zKFCmA5hv9fclFULEH1XnT0PYRYqNU+x3yldGoPzNvyQqRNOjSPQ0hREoc6FsVOKdoyRQIb4cFIkKIUQAFIkKIUQAJFEhhAiAJCqEEAGQRIUQIgCSqBBCBEASFUKIAEiiQggRAElUCCECIIkKIUQAJFEhhAiAJCqEEAGQRIUQIgCSqBBCBEASFUKIAEiiQggRAElUCCECIIkKIUQAJFEhhAiAJCqEEAGQRIUQIgCSqBBCBEASFUKIAEiiQggRAElUCCECIIkKIUQAmn3h4I7HjQ8++ABbt27F4cOHMWTIEJx33nnunPB89NFHKCkpQUVFhVmnZcuWZp2UlBT827/9G5o1a+YuGT3Hjh0z29y7d6/ZJjn33HNx8cUXm+22aNHCTKuLffv2YceOHXj//ferttG+fXskJiaib9++ZlwIcWYRN4l+9tlnRliUDmVIKJn6JFpWVoZNmzbh6NGj7pRqzj77bPTs2RP9+/fHWWdFH0Tv2bMHGzdurBKfnwsvvBBXXXVVRAl++umn2Lx5M3bu3GnG/UTzuYQQX01iLtHjx4/jtddeMwI9ceKEOzVEfbJhxFpUVFQVfXbv3h3nn38+PvzwQ+zevdtsjyLt168fevfu7a5VN9zmunXrcPDgQfOewuzQoQM+//xzvPfeezh06JCZzgh38ODBZr9euBwF/NZbb5n355xzjok87Wdg1MzhyiuvjEqi/By8qLRq1QppaWnmtS74mbdt24aPP/4YSUlJuOiii9w5MGXivr3w4sLPx8/TunVrd6oQIl40n+7gjscEnvSMPilCCq9Lly6gpzmdwuDJ3aZNG3fpahi5vv7660Z6XI/V4wEDBqBTp07o1q0b2rZta+ZxOxQbhcLl6sJuk9VvQvky4uzatasZKOkjR44YkbK6n5CQgI4dO5plLRQVB+6Tn+Waa65BamqqESkHbqNXr15GrtGkGShz7vPkyZNGcu3atXPnhKeystJcRAgvQhSkhdN5PJiW4DFlGVhOHvsDBw6YzxJNmkII0Xji0rDEaO7SSy9FdnY2rrjiinqjLcJ8o5UFo09W271QepQW2b9/f9WydcEojcuSCy64wGzTmwageJgPpcxYTX/33XeNeC2UK9MLnMd987NEqvI3JE/bvHlzcwHgZ6BMI8F5XIbLR0pfcB7zuhQ7h8svv9xcYFgjiOYYCSGCEXOJUkzXXXcdBg0aZCKhaOXCyMnmQTt37lyrWk3p2OoypRaNIBhd2jwoo8xwETAjXStGLvvJJ5+YccJqN+VOkpOTIwq0MTCy9pYvHJzHZRpyHAmXp1zrErQQIjbEJRJtDDY3SVg9DYdXYpSLN2psLJSzzR2yamwlym2zKk1YhWZ0HEus6CjqcGlpTuM8li/S8YgEjw2r9RS1ECK+nBISZWTJhhNCUYaLGAmnW5EyyqqvTYz5QCtIm/f0w/3aCNhGfoRCtdOZjmBkXFpaiuXLl+PZZ581A8e3b9/eKJmzXIyOmR8N1xOB0zjP5kCjiSopTkbobNSjpBllCyHiyykhUcrQK8Roqq6UXH3yYgRnG26YG3377bdr7IfrU4I2b+qFMrVRKWW8ZcsW03OAkqL0bUqBPRHWrFljytMQ+BmZZ2V5bMTrhdPsMnXBcrBL2Nq1a/Hqq68a0VO8/vyvECI+nBJnGWXmzUVGQzSRKKuz7BLEKrGVTUFBgREfh5UrVxqJ1gcbnNhHlDlZtvCzKxR7Gdi87TvvvIM333zTjDcESp6RNRvA2BBk4bFgjth7EYiE7dLEqJMDo3X2YmC/VhvdCyHixykTqjSk4YRQYMwp1scll1xiojKKlDDCozg5MJJkqz/7jhIKjd2EwkFpssGMEuX22NVp4MCBVdv19jmNFhtpMoqlNC0sFy8s9UWhxN86z65h7BnBi8auXbvUuCREnDklJOpt3IkWyiOa6iqXYX/TzMxM09/USpJRG7ssMaq0IuQ2w/WrZERLGft7DHB7VnQ2h9lQGG2yTJQ7xUn5Mb3gzf82FEamHBiJKhoVIr6cEhJlRGajSlZlI1Xtmae0XYIoXSu/+uD22Sk+KysLo0aNQm5uLq6//nojRkZqtjGJ4rKNWlzHRseUXDihscHJtoCzzPXlaMPBz0Chswys1rMzPsXH1EE0kXYkKHymO9jYJISIH6eERBn9WXkxEotULfZGeo2N0vwwArT7Y/RmfxhAcdpxiqgxgowWRrOUHnOZHHiBCNqyzhQBLwJqXBIivpwyZxgjLxtZsoO7X1p8bzu+M/pjh/ygUDRsFKK4uU3mRy0Ume2fyejX7tsLo0crYErdXggaCmVNgXM/3F64Hxs0BEa0HHghsOkLIUR8OKUkaqMv/ta9vLzcjFv43v4Gnst6JcoItbCwEEuWLKm6UYglUlcoTmdrPe/wRNi45G3IYQTHnCdlSsnyfgD2JiaEVWV2mbLdo1h2irCxcN/cp63eRwvTESwHb/PHgV2xeAy4LaYwgqQEhBD1E/MbkPihgHjnIkZtjLgi3YCE8mD1k63cFBxfKUeOUw7FxcWmGxCjw8suu6xGdZ7SoOQoS+6HQrIRGLsn/f3vfzct3mwBZ4TG7kq8MYm9RR9/jcSWdn/jFrsXscGIUShfuTzXZ9m4T/u7ekaxLBM7z9cHRcxt8UJg0wWEn59RKMttewtY+JlYdn5mr6j5mZg/ZT7WNiJRquxoz5ui2HytECJ+xP2mzBTAP/7xD3PCUwJ13QqPuUf2t6QwKSc/lAJb2r23gyPsE8mBUDLcB0VCWF3n/iPBOzPVdWMRSpyd2CnMcLBMvL8pf1svhDjzOGUiUcJIlHdbomQpL67L6JKCo6R4UxN/lEYoMkatXJ59JFmNtXi7QnFbjNS4PPfDOx6x36c/AvXC9bk9RsAsEwcb7bF/Ju8jGuvf1QshTh+a5PEgQgjxVUX9X4QQIgCSqBBCBEASFUKIAEiiQggRAElUCCECIIkKIUQAJFEhhAiAJCqEEAGQRIUQIgCSqBBCBEASFUKIAEiiQggRAElUCCECIIkKIUQAdCs8ERjep3Xbtm3mjv28V2vv3r3DPnpa1MY+zob3wRWnJzGVaKS7yF9zzTXmZsynA/wMpaWl5tlJfNwGb8bMsqelpVU9SM8Pbwi9ceNGc3Nn3qS5Lrx3+vfjPU586uf27dvNclZOvDk0y+G9qTW398Ybb5hnRfGm16mpqeZR0N6nfO7atcvcGDsjI6POG1A3BitQHhuJIAQf88L/HW8k7n1uVzhiJVH+f+3jbiy8oTi/C9E8tkY0nphX53kX+uHDh5tnu3Pg4zwoDcopHlAiy5cvj9n2+fwkPsuJwurRo4e5kz0f/rZ+/fpaz3CnQHgSvPzyy1Hvn9vmenyWEh+25x280RvlyZMxKSkJPXv2NFLkvtauXVv1XH5uhw/bo8T5TH2eMBQaTygLnyDKiwLnxVqghMef5fE+OFDUhv/LDRs2mNdYwu299tpr5pVPfhg8eHDVEOTBiSJ64p4T5QPTKCTK6XSAz0viRYARZWZmJr72ta+ZCwMfMGflRRipUt6Ua7jnQUWCjxbhwEegfOMb38C3vvWtqoHPe7Iworz++uurTojrrrvORDWUIqVJWCaWg4LkI0pSUlKMzPgsfQsfysenh4Z7rIqID4z8+Nyu+qLQoPCCzAc08n/ft2/fWikUnnuKQuOPGpZ8+KvsrDrzGfB8/pMXRqWsYl999dUmB9hQGIlGSg8QnhDefbKqzoHT7HRmYricrd5ze97nzPPCRclSyN7qvfhqwEdl87vZtWtXd4r4Moh5TpTVS+8TPW0O0OYVvfApmnwcssWfOw2XP6QQbN7Rvz6x8xkdrlmzpuq58oSpBX8Z6oL7Z/WY1eH09PSI6/LppMyJessWCR4jfqZolrUwpcCIg9V5PumUn4NS5HFh9Z4P3OMz8u1nplT5COeioqKqtERD8TYWWVg99ObuWB4+QtoLo+FwERhTDCwvj6P3UdGMmvkkVW/ujtN4zC28OHjXYwS2devWqhpApPn8LvFx1yyjLbt/XRKpzOHKZo8L8TagcVn+b1kO7sPmRPlAQ/9xJEzT8H9pc6KshXAd1lKInR8J72eMd8Qr6iamT/tk9ZLRD/+xNjqiVAlPdCa6Cb/A//rXv8wXktVYVqH5Jadc+MrGHEJx8CrLKjWfyskvGoXFKJBfHM5jvpBfYOaDuBynWZkwKuP27br84tWXu7Nl48AvP/fFsnM//mjUwv0zqc9t1xcV8BhRKDy5+ZhnfkZGi0wZeKNIwovEK6+8Yh4jzZOQEudgjyPlwQYoPpOex2zv3r3mokFZsDyUL5dvaBTK/BpPUJbHCprHm8/wZ7n5OblNXigpF5afoqZsGJ2Hg5+bFyVWPb3VTk6j5LgtStCKi4Ki3LhvplG4H67HsvE7wPJQWJzPaSwby8VlKCIeF6Y9+FRXlovbt+LhuF3Xijdcubktloef1eYX+f3gseUrj7ldn8edUSHTJtwPjxPX4f+VZWD5+Tn5v+HnstvjhYXTeRxYJee5w21SyHyNdDz5P+fAbdsyiC+HmNfxmLNjrjA/P98M/ML16dOnRtWV0/jF8U7nl4fRGaso/IISCoDTLfzy8wptc4KR4PpsWffmAbkut18fFCVPUJ54XJ/74oWAsosFvHDwM/FkonB5glIalLY34ibMZdrluB5b4SkB28DFY8eolBQUFJhIhhEoG5DKy8tNTowR3fPPP49nn30Wq1atqvfYEcqYJz/3beGJyu1RaDx54wVlwvJ7eyBQ0FYULBvney9WfHQ18efduZw3SqPcCKNDC+d7l/FiJUZJ8/gTjvMixmNvt8dXXuTqu0BHgtvid9NeXFg+7pciFqc+MZeov3WeVfvVq1ebqMrCLztlSLF5adeunZGflSjhOE9+K2VW3/3L+OGXklEU5ecXU33wi0x5s2GADT8cuC1Gg++//767VOOhEJi2YOR87bXXmkiZUmWk5m/hZ/TrXY4nO0XpbX3n8R46dChuueUWjBgxwmyLyzDytukIfh5ugwJk9GuFEI66hECxUUzxPLm5D+6fDWJ+bNl4cbPCIZQao0B+L7z4I3srYl4QrQDrg8eBEb2tZvOzU3Le42C31diIkML0rsvPxu8wv+N1/a/EqUHcWxsoSlbXGX1SaDZKpAytGO3AvKIXipcRFOVhpRxNNMkvIMVCUduomFXAxsBokFVQnrzxkAdPRubOCKP4SBcHysXmPVnFjARFzJOaVUZerHj8GanxM1DgtuoYCa7r78rVlPB/TenzWDDfy25BVlK2bIyuOc8O7CHB/48fbzRLKCpG6hQuL7Bct65jSWwulBEo988LESVKuXKfnMbInNv07y+eWOnaYyO+PJqkyZZfLn7JiI0SKUMrRu/AKJbLUwYUL9/zpGoMbLjhNhn5UdDeaLgheKOeeGDb9hhRRcq7EpsLjQQvTuxYT1lyWZ7wPO62/DzxKGFGVpHgMg3NoUZDQwRDcbEmwCic5Wf0TInZsvEC4e0PaQdv+iESPBbMPXJ5XmQpZG9k78dGubyA2qo8PwvLyHGKlNNtzrapYBniXSsQ0dEkEmXk4z1xWW1nY0RdEVE4uDzXayis4jJ3WF8agCeDv8rO/TEPxypXY3NeXrgPb4cIis6exGyo4InIacxpepfjZ+dyvAhFyuGxmspjy4jVnvyshtrIklELReSv5nrxSsMPy8CyNfY4sBz+yKkuCfBY8GJLcXK9usrWGNj6zQYefxrAC8tAQdoagJUly8KBZeEx9uZZmwKWgWkN1izqi6ZFfIm7RFmFZ9XJmwO11Vf+0sIrNUafNi9oIxe2slrYqOLPcdrI1tuowJOd0YvFngBcjstHgqJft26daaRh2dhbgK3jzFdSxJHkFQk24qxcuRJ//etfq058dmnhe1Yl2YPgxRdfNJ+Z22djFqFs+Fk5j9Ezl1uxYoVpgWaDSrgeADxOvABwG5QOB7bcMppntMX5jFI5LVKLL+HJSbmwOm273xBKjJJmDrahx4FQPiwTLwQ2z8f/CSXghRcPXmgsHOfxoPy94vBHj/xs9VVtuS1u38LlGUnWdVEhFCS/GxysLK1cuU2Kvb5Im+UnsWyU4/8hUjTNY8wUlvdYivjwpf12nmLz9+Nkn0b+SsiKzr89boeyZOQQaTlGLuy+wvde4XJ6ff0yWSZ+8Xii2TwXc6Js4KFYIlW1uU64fqKUKGXJ6I2/W2cERzHxS29PJp6UlCJTFtwfoTQoLPZUoMAJo1TmNlmV5QnsheXmfihIlsHC7bBhiflnjjNCZX7a7qcuKBiK3HuR4wnr77vIk9T2iaxPrnZZ20jDKJDHxNsXkzKg+C2M9uw8i387xFs2W3b/ha++9SJBIYXrG2q35+/JEOmYeD+b3a+9UPlTEZzOYx/NzVzC/a8IL5bRrC+Cobs4CSFEAJokJyqEEF9VJFEhhAiAJCqEEAGQRIUQIgCSqBBCBEASFUKIAEiiQggRAElUCCECIIkKIUQAJFEhhAiAJCqEEAGQRIUQIgCSqBBCBEASFUKIAEiiQggRAElUCCECIIkKIUQAJFEhhAiAJCqEEAGQRIUQIgCSqBBCBEASFUKIAEiiQggRAElUCCECIIkKIUQAJFEhhAiAJCqEEAGQRIUQIgCSqBBCBEASFUKIAEiiQggRAElUCCECIIkKIUQAJFEhhAiAJCqEEAGQRIUQotEA/x8U/dGIz+jfhAAAAABJRU5ErkJggg==;" vertex="1" parent="1">
          <mxGeometry x="318" y="265.76" width="158.07" height="144" as="geometry" />
        </mxCell>
        <mxCell id="9oymTsqKh7B6sWfHl0c2-9" value="Python" style="text;html=1;align=center;verticalAlign=middle;whiteSpace=wrap;rounded=0;" vertex="1" parent="1">
          <mxGeometry x="123" y="233" width="60" height="30" as="geometry" />
        </mxCell>
        <mxCell id="9oymTsqKh7B6sWfHl0c2-10" value="C" style="text;html=1;align=center;verticalAlign=middle;whiteSpace=wrap;rounded=0;" vertex="1" parent="1">
          <mxGeometry x="314" y="233" width="60" height="30" as="geometry" />
        </mxCell>
        <mxCell id="9oymTsqKh7B6sWfHl0c2-11" value="Python" style="text;html=1;align=center;verticalAlign=middle;whiteSpace=wrap;rounded=0;" vertex="1" parent="1">
          <mxGeometry x="553" y="231" width="60" height="30" as="geometry" />
        </mxCell>
      </root>
    </mxGraphModel>
  </diagram>
</mxfile>
